<svg width="920" height="924" viewBox="0 0 920 924" fill="none" xmlns="http://www.w3.org/2000/svg">
<g filter="url(#filter0_d_25_37)">
<path d="M830.09 5H830.362H842.847H843.118V6.08565H843.39H847.189H847.461V7.17129H847.732H850.446H850.718V8.25694H852.889V9.34258H853.975V10.4282H856.146V11.5139H857.232V12.5995H858.317V13.6852H859.403V14.7708H860.489V15.8565H861.574V16.9421H862.66V18.0277H863.745V19.1134H864.831V21.2847H865.917V23.456H867.002V25.6273H868.088V25.8987V28.6128V28.8842H869.174V29.1556V34.041V34.3124H870.259V34.5838V40.5549V40.8263H871.345V41.0977V47.0688V47.3402H872.431V47.6116V53.5826V53.854H873.516V54.1255V60.0965V60.3679H874.602V60.6393V66.6104V66.8818H875.688V67.1532V73.1243V73.3957H876.773V73.6671V80.7238V80.9952H877.859V81.2666V88.3233V88.5947H878.944V88.8661V94.8372V95.1086H880.03V95.38V102.437V102.708H881.116V102.98V110.036V110.308H882.201V110.579V117.636V117.907H883.287V118.179V125.235V125.507H884.373V125.778V133.92V134.192H885.458V134.463V142.606V142.877H886.544V143.148V151.291V151.562H887.63V151.834V159.976V160.247H888.715V160.519V168.661V168.932H889.801V169.204V178.432V178.703H890.887V178.975V188.203V188.474H891.972V188.745V199.059V199.331H893.058V199.602V209.916V210.187H894.144V210.458V220.772V221.043H895.229V221.315V232.714V232.986H896.315V233.257V245.742V246.013H897.4V246.285V259.855V260.127H898.486V260.398V273.969V274.24H899.572V274.511V289.168V289.439H900.657V289.711V305.452V305.724H901.743V305.995V326.08V326.351H902.829V326.622V348.878V349.15H903.914V349.421V381.448V381.719H905V381.99V521.496V521.767H903.914V522.039V555.151V555.422H902.829V555.694V579.035V579.306H901.743V579.578V600.748V601.019H900.657V601.291V619.204V619.475H899.572V619.747V635.489V635.76H898.486V636.031V649.602V649.873H897.4V650.145V663.715V663.987H896.315V664.258V675.657V675.929H895.229V676.2V687.6V687.871H894.144V688.142V699.542V699.813H893.058V700.084V711.484V711.755H891.972V712.027V722.34V722.612H890.887V722.883V732.111V732.382H889.801V732.654V741.882V742.153H888.715V742.425V751.653V751.924H887.63V752.195V761.423V761.695H886.544V761.966V771.194V771.466H885.458V771.737V779.879V780.151H884.373V780.422V788.565V788.836H883.287V789.107V797.25V797.521H882.201V797.793V805.935V806.206H881.116V806.478V814.62V814.891H880.03V815.163V822.22V822.491H878.944V822.762V829.819V830.091H877.859V830.362V838.504V838.776H876.773V839.047V846.104V846.375H875.688V846.647V853.703V853.975H874.602V854.246V861.303V861.574H873.516V861.846V867.817V868.088H872.431V868.36V875.416V875.688H871.345V875.959V881.93V882.202H870.259V882.473V886.273V886.544H869.174V888.715H868.088C868.088 888.987 868.088 889.62 868.088 890.615V890.887H867.002V893.058H865.917V894.144H864.831V896.315H863.745V897.401H862.66V898.486H861.574V899.572H860.489V900.657H859.403V901.743H857.232V902.829H856.146V903.914H853.975V905H851.803V906.086H851.532H848.818H848.546V907.171H848.275H844.475H844.204V908.257H843.932H831.448H831.176V907.171H830.905H828.191H827.919V906.086H827.648H824.934H824.662V905H822.491V903.914C822.22 903.914 821.586 903.914 820.591 903.914H820.32V902.829H818.148V901.743H817.063V900.657H815.977V899.572H813.806V898.486H812.72V896.315H811.634V895.229H810.549V894.144H809.463V891.972H808.378V889.801H807.292V887.63H806.206V885.458H805.121V885.187V881.387V881.116H804.035V880.844V867.274V867.002H805.121V866.731V860.76V860.489H806.206V860.217V853.16V852.889H807.292V852.618V845.561V845.29H808.378V845.018V837.961V837.69H809.463V837.419V830.362V830.091H810.549V829.819V822.762V822.491H811.634V822.22V815.163V814.891H812.72V814.62V806.478V806.206H813.806V805.935V798.878V798.607H814.891V798.335V790.193V789.922H815.977V789.65V781.508V781.236H817.063V780.965V772.823V772.551H818.148V772.28V764.138V763.866H819.234V763.595V754.367V754.095H820.32V753.824V744.596V744.325H821.405V744.053V734.825V734.554H822.491V734.282V723.969V723.697H823.577V723.426V713.112V712.841H824.662V712.569V703.341V703.07H825.748V702.799V691.399V691.128H826.834V690.857V680.543V680.271H827.919V680V667.515V667.244H829.005V666.972V654.487V654.216H830.09V653.945V640.374V640.103H831.176V639.831V625.175V624.904H832.262V624.632V607.805V607.533H833.347V607.262V590.434V590.163H834.433V589.891V568.721V568.45H835.519V568.179V542.666V542.394H836.604V542.123V513.353V513.082H837.69V512.811V385.247V384.976H835.519V386.062H834.433V387.147H833.347V388.233H832.262V389.318H831.176V390.404H829.005V391.49H827.919V392.575H826.834V393.661H825.748V394.747H823.577V395.832H822.491V396.918H821.405V398.004H819.234V399.089H818.148V400.175H815.977V401.261H814.891V402.346C814.62 402.346 813.987 402.346 812.992 402.346H812.72V403.432H810.549V404.518H809.463V405.603H807.292V406.689C807.02 406.689 806.387 406.689 805.392 406.689H805.121V407.774H802.949V408.86H801.864V409.946H799.692V411.031H797.521V412.117H795.35V413.203H795.078H792.364H792.093V414.288H789.922V415.374H787.75V416.46H785.579V417.545H785.308H782.593H782.322V418.631H780.151V419.717H779.879H777.165H776.894V420.802H774.723V421.888H774.451H771.737H771.466V422.973H769.294V424.059H769.023H766.309H766.037V425.145H765.766H763.052H762.78V426.23H762.509H759.795H759.524V427.316H759.252H756.538H756.267V428.402H755.995H753.281H753.01V429.487H752.738H750.024H749.753V430.573H749.481H745.682H745.41V431.659H745.139H742.425H742.153V432.744H741.882H738.082H737.811V433.83H737.539H734.825H734.554V434.916H734.282H730.482H730.211V436.001H729.94H726.14H725.868V437.087H725.597H721.797H721.526V438.173H721.255H717.455H717.183V439.258H716.912H713.112H712.841V440.344H712.569H708.77H708.498V441.429H708.227H704.427H704.156V442.515H703.884H698.999H698.727V443.601H698.456H694.656H694.385V444.686H694.113H689.228H688.957V445.772H688.685H683.8H683.528V446.858H683.257H677.286H677.014V447.943H676.743H671.858H671.586V449.029H671.315H666.429H666.158V450.115H665.887H659.916H659.644V451.2H659.373H653.402H653.13V452.286H652.859H646.888H646.616V453.372H646.345H639.288H639.017V454.457H638.745H631.689H631.417V455.543H631.146H624.089H623.818V456.629H623.546H616.49H616.218V457.714H615.133V457.986V460.7V460.971H614.047V461.242V463.957V464.228H612.961V466.399H611.876V466.671V469.385V469.656H610.79V471.828H609.704V472.099V474.813V475.084H608.619V477.256H607.533V479.427H606.448V479.698V482.413V482.684H605.362V484.855H604.276V487.027H603.191V489.198H602.105V491.369H601.019V491.641V494.355V494.626H599.934C599.934 494.898 599.934 495.531 599.934 496.526V496.797H598.848V498.969H597.762V500.054H596.677V502.226H595.591V504.397H594.505V506.568H593.42V508.739H592.334C592.334 509.011 592.334 509.644 592.334 510.639V510.911H591.248V513.082H590.163V514.168H589.077V516.339H587.992C587.992 516.61 587.992 517.244 587.992 518.239V518.51H586.906V520.682H585.82V521.767H584.735V523.939H583.649V526.11H582.563V527.195H581.478C581.478 527.467 581.478 528.1 581.478 529.095V529.367H580.392V531.538H579.306V532.624H578.221V534.795H577.135V535.881H576.049V538.052H574.964V539.138H573.878V541.309H572.793V542.394H571.707V544.566H570.621V545.651H569.536V547.823H568.45V548.908H567.364V551.08H566.279V552.165H565.193V554.337H564.107V555.422H563.022V556.508H561.936V558.679H560.85V559.765H559.765V560.85H558.679V563.022H557.593V564.107H556.508V565.193H555.422V567.364H554.337V568.45H553.251V569.536H552.165V571.707H551.08V572.793H549.994V573.878H548.908V574.964H547.823V577.135H546.737V578.221H545.651V579.306H544.566V580.392H543.48V582.563H542.394V583.649H541.309V584.735H540.223V585.82H539.138V586.906H538.052V587.992H536.966V590.163H535.881V591.249H536.966V592.334H539.138V593.42H540.223V594.505H541.309V595.591H543.48V596.677H544.566V597.762H546.737V598.848H547.823V599.934H549.994V601.019H551.08V602.105H553.251V603.191H554.337V604.276H556.508V605.362H557.593V606.448H559.765V607.533H560.85V608.619H561.936V609.705H564.107V610.79H565.193V611.876H566.279V612.961H568.45V614.047H569.536V615.133H571.707V616.218H572.793V617.304H573.878V618.39H576.049V619.475H577.135V620.561H578.221V621.647H580.392V622.732H581.478V623.818H582.563V624.904H584.735V625.989H585.82V627.075H586.906V628.16H589.077V629.246H590.163V630.332H592.334V631.417H593.42V632.503H594.505V633.589H595.591V634.674H597.762V635.76H598.848V636.846H599.934V637.931H602.105V639.017H603.191V640.103H604.276V641.188H606.448V642.274H607.533V643.36H608.619V644.445H609.704V645.531H611.876V646.616H612.961V647.702H614.047V648.788H615.133V649.873H617.304V650.959H618.39V652.045H619.475V653.13H620.561V654.216H621.647V655.302H623.818V656.387H624.903V657.473H625.989V658.559H627.075V659.644H629.246V660.73H630.332V661.815H631.417V662.901H632.503V663.987H633.589V665.072H634.674V666.158H635.76V667.244H636.846V668.329H639.017V669.415H640.103V670.501H641.188V671.586H642.274V672.672H643.359V673.758H644.445V674.843H645.531V675.929H646.616V677.015H647.702V678.1H649.873V679.186H650.959V680.271H652.045V681.357H653.13V682.443H654.216V683.528H655.302V684.614H656.387V685.7H657.473V686.785H658.558V687.871H659.644V688.957H660.73V690.042H661.815V691.128H662.901V692.214H663.987V693.299H665.072V694.385H666.158V695.47H667.244V696.556H668.329V697.642H669.415V698.727H670.501V699.813H671.586V700.899H672.672V701.984H673.758V703.07H674.843V704.156H675.929V706.327H677.014V707.413H678.1V708.498H679.186V709.584H680.271V710.67H681.357V711.755H682.443V712.841H683.528V713.926H684.614V716.098H685.7V717.183H686.785V718.269H687.871V719.355H688.957V720.44H690.042V722.612H691.128V723.697H692.213V724.783H693.299V725.869H694.385V726.954H695.47V729.126H696.556V730.211H697.642V731.297H698.727V733.468H699.813V734.554H700.899V736.725H701.984V737.811H703.07V738.896H704.156V741.068H705.241V742.153H706.327V744.325H707.413V745.41H708.498C708.498 745.682 708.498 746.315 708.498 747.31V747.581H709.584V749.753H710.669V750.838H711.755C711.755 751.11 711.755 751.743 711.755 752.738V753.01H712.841V755.181H713.926V756.267H715.012V758.438H716.098V760.609H717.183V762.781H718.269V764.952H719.355V767.123H720.44V769.294H721.526V769.566V772.28V772.551H722.612V774.723H723.697V774.994V777.708V777.98H724.783V780.151H725.868V780.422V783.136V783.408H726.954V783.679V786.393V786.665H728.04V786.936V790.736V791.007H729.125V791.279V795.078V795.35H730.211V795.621V800.507V800.778H731.297V801.05V811.363V811.635H732.382V811.906V821.134V821.405H731.297V821.677V831.99V832.262H730.211V832.533V837.419V837.69H729.125V837.961V841.761V842.033H728.04V842.304V845.018V845.29H726.954V845.561V848.275V848.547H725.868V850.718H724.783V850.989V853.703V853.975H723.697V856.146H722.612C722.612 856.417 722.612 857.051 722.612 858.046V858.317H721.526V860.489H720.44V861.574H719.355C719.355 861.846 719.355 862.479 719.355 863.474V863.746H718.269V865.917H717.183V867.002H716.098V868.088H715.012V870.259H713.926V871.345H712.841V872.431H711.755V873.516H710.669V875.688H709.584V876.773H708.498V877.859H707.413V878.945H706.327V880.03H705.241V881.116H704.156V882.202H703.07V883.287H701.984V884.373H699.813V885.458H698.727V886.544H697.642V887.63H696.556V888.715H694.385V889.801H693.299V890.887H691.128V891.972H690.042V893.058C689.771 893.058 689.137 893.058 688.142 893.058H687.871V894.144H685.7V895.229H684.614V896.315H682.443V897.401H682.171H679.457H679.186V898.486H677.014V899.572H674.843V900.657H674.572H671.858H671.586V901.743H671.315H668.601H668.329V902.829H668.058H665.344H665.072V903.914H664.801H661.001H660.73V905H660.458H656.659H656.387V906.086H656.116H650.145H649.873V907.171H649.602H641.46H641.188V908.257H640.917H611.062H610.79V907.171H610.519H600.205H599.934V906.086H599.662H592.606H592.334V905H592.063H586.092H585.82V903.914H585.549H579.578H579.306V902.829H579.035H574.15H573.878V901.743H573.607H569.807H569.536V900.657H569.264H565.464H565.193V899.572H564.922H561.122H560.85V898.486H560.579H556.779H556.508V897.401H556.236H552.437H552.165V896.315H551.894H549.18H548.908V895.229H548.637H544.837H544.566V894.144H544.294H541.58H541.309V893.058H541.037H538.323H538.052V891.972H537.78H535.066H534.795V890.887H534.524H531.809H531.538V889.801H531.267H528.552H528.281V888.715H528.01H525.296H525.024V887.63H522.853V886.544H522.581H519.867H519.596V885.458H519.324H516.61H516.339V884.373H516.068H513.353H513.082V883.287H510.911V882.202H510.639H507.925H507.654V881.116H505.482V880.03H505.211H502.497H502.226V878.945H500.054V877.859H499.783H497.069H496.797V876.773H494.626V875.688H492.455V874.602H492.183H489.469H489.198V873.516H487.027V872.431H484.855V871.345H482.684V870.259H482.413H479.698H479.427V869.174H477.256V868.088H475.084V867.002H472.913V865.917H470.742V864.831H470.47H467.756H467.485V863.746H465.314V862.66H463.142V861.574H460.971V860.489H458.8V859.403C458.528 859.403 457.895 859.403 456.9 859.403H456.628V858.317H454.457V857.232H453.372V856.146H451.2V855.06H449.029V853.975H446.858V852.889H444.686V851.803H442.515V850.718H440.344V849.632H438.172V848.547H436.001V847.461H433.83V846.375C433.558 846.375 432.925 846.375 431.93 846.375H431.659V845.29H429.487V844.204H428.402V843.118H426.23V842.033C425.959 842.033 425.326 842.033 424.331 842.033H424.059V840.947H421.888V839.861H420.802V838.776H418.631V837.69C418.359 837.69 417.726 837.69 416.731 837.69H416.46V836.604H414.288V835.519H413.203V834.433C412.931 834.433 412.298 834.433 411.303 834.433H411.031V833.347H408.86V832.262H407.774V831.176H405.603V830.091H403.432V829.005H402.346V827.919C402.075 827.919 401.441 827.919 400.446 827.919H400.175V826.834H398.004V825.748H396.918V824.662H394.747V823.577H393.661V822.491C393.39 822.491 392.756 822.491 391.761 822.491H391.49V821.405H389.318V820.32H388.233V819.234H386.062V818.148H384.976V817.063H382.805V815.977H381.719V814.891H379.548V813.806H378.462V812.72H376.291V811.635H375.205V810.549H373.034V809.463H371.948V808.378H369.777V807.292H368.691V806.206H366.52V805.121H365.434V804.035H364.349V802.949H362.177V801.864H361.092V800.778H358.92V799.692H357.835V798.607H356.749V797.521H354.578V796.436H353.492V795.35H352.407V794.264H350.235V793.179H349.15V792.093H348.064V791.007H345.893V789.922H344.807V788.836H343.721V787.75H341.55V786.665H340.464V785.579H339.379V784.493H338.293V783.408H336.122V782.322H335.036V781.236H333.951V780.151H332.865V779.065H330.694V777.98H329.608V776.894H328.522V775.808H327.437V774.723H325.265V773.637H324.18V772.551H323.094V771.466H322.008V770.38H320.923V769.294H319.837V768.209H318.752V767.123H316.58V766.037H315.495V764.952H314.409V763.866H313.323V762.781H312.238V761.695H311.152V760.609H308.981V759.524H307.895V758.438H306.809V757.352H305.724V756.267H304.638V755.181H303.552V754.095H302.467V753.01H301.381V751.924H300.296V750.838H299.21V749.753H298.124V748.667H297.039V747.581H295.953V746.496H294.867V745.41H293.782V744.325H292.696V743.239H291.61V742.153H290.525V741.068H289.439V739.982H288.353V738.896H287.268V737.811H286.182V736.725H285.096V735.639H284.011V734.554H282.925V733.468H281.84V732.382H280.754V731.297H279.668V730.211H278.583V729.126H277.497V728.04H276.411V726.954H275.326V725.869H274.24V724.783H273.154V722.612H272.069V721.526H270.983V720.44H269.897V719.355H268.812V718.269H267.726V717.183H266.641V715.012H265.555V713.926H264.469V712.841H263.384V711.755H262.298V710.67H261.212V708.498H260.127V707.413H259.041V706.327H257.955V705.241H256.87V703.07H255.784V701.984H254.698V700.899H253.613V698.727H252.527V697.642H251.441V695.47H250.356V694.385H249.27V693.299H248.185V691.128H247.099V690.042H246.013V687.871H244.928V686.785H243.842V684.614H242.756V683.528H241.671V681.357H240.585V680.271H239.499C239.499 680 239.499 679.367 239.499 678.372V678.1H238.414V675.929H237.328V674.843H236.242V672.672H235.157V670.501H234.071V668.329H232.986V666.158H231.9V663.987H230.814V661.815H229.729V659.644H228.643V657.473H227.557V655.302H226.472V653.13H225.386V650.959H224.3V650.688V647.974V647.702H223.215V645.531H222.129V645.259V642.545V642.274H221.043V642.002V639.288V639.017H219.958V638.746V636.031V635.76H218.872V635.489V632.774V632.503H217.786V632.232V628.432V628.16H216.701V627.889V624.089V623.818H215.615V623.546V618.661V618.39H214.53V618.118V611.062V610.79H213.444V610.519V595.863V595.591H212.358V595.32V589.349V589.077H213.444V588.806V570.893V570.621H214.53V570.35V562.208V561.936H215.615V561.665V554.608V554.337H216.701V554.065V548.094V547.823H217.786V547.551V541.58V541.309H218.872V541.037V536.152V535.881H219.958V535.609V530.724V530.452H221.043V530.181V526.381V526.11H222.129V525.838V522.039V521.767H223.215V521.496V516.61V516.339H224.3V516.068V513.353V513.082H225.386V512.811V509.011V508.739H226.472V508.468V504.668V504.397H227.557V504.125V500.326V500.054H228.643V499.783V497.069V496.797H229.729V496.526V493.812V493.54H230.814V493.269V489.469V489.198H231.9V488.926V486.212V485.941H232.986V485.67V482.955V482.684H234.071V482.413V479.698V479.427H235.157V479.156V476.442V476.17H236.242V475.899V473.185V472.913H237.328V472.642V469.928V469.656H238.414V467.485H239.499V467.214V464.499V464.228H240.585V463.957V461.242V460.971H241.671V458.8H242.756V458.528V455.814V455.543H243.842V455.271V452.557V452.286H244.928V450.115H246.013V447.943H247.099V447.672V444.958V444.686H248.185V442.515H249.27V442.244V439.53V439.258H250.356V437.087H251.441V434.916H252.527V432.744H253.613V432.473V429.759V429.487H254.698V427.316H255.784V425.145H256.87V422.973H257.955V420.802H259.041V418.631H260.127V416.46H261.212V414.288H262.298V412.117H263.384C263.384 411.846 263.384 411.212 263.384 410.217V409.946H264.469V407.774H265.555V406.689H266.641V404.518H267.726V402.346H268.812V400.175H269.897C269.897 399.904 269.897 399.27 269.897 398.275V398.004H270.983V395.832H272.069V394.747H273.154V392.575H274.24C274.24 392.304 274.24 391.671 274.24 390.676V390.404H275.326V388.233H276.411V387.147H277.497C277.497 386.876 277.497 386.242 277.497 385.247V384.976H278.583V382.805H279.668V381.719H280.754V379.548H281.84V378.462H282.925C282.925 378.191 282.925 377.557 282.925 376.562V376.291H284.011V374.119H285.096V373.034H286.182V370.863H287.268V369.777H288.353V367.606H289.439V366.52H290.525V364.349H291.61V363.263H292.696V361.092H293.782V360.006H294.867V358.92H295.953V356.749H297.039V355.663H298.124V353.492H299.21V352.407H300.296V351.321H301.381V349.15H302.467V348.064H303.552V346.978H304.638V344.807H305.724V343.721H306.809V342.636H307.895V341.55H308.981V339.379H310.066V338.293H311.152V337.208H312.238V336.122H313.323V333.951H314.409V332.865H315.495V331.779H316.58V330.694H317.666V329.608H318.752V327.437H319.837V326.351H320.923V325.265H322.008V324.18H323.094V323.094H324.18V322.008H325.265V320.923H326.351V318.752H327.437V317.666H328.522V316.58H329.608V315.495H330.694V314.409H331.779V313.323H332.865V312.238H333.951V311.152H335.036V310.066H336.122V308.981H337.207V307.895H338.293V306.809H339.379V305.724H340.464V304.638H341.55V303.552H342.636V302.467H343.721V301.381H344.807V300.296H345.893V299.21H346.978V298.124H348.064V297.039H349.15V295.953H350.235V294.867H351.321V293.782H352.407V292.696H353.492V291.61H354.578V290.525H356.749V289.439H357.835V288.353H358.92V287.268H360.006V286.182H361.092V285.097H362.177V284.011H363.263V282.925H365.434V281.84H366.52V280.754H367.606V279.668H368.691V278.583H369.777V277.497H371.948V276.411H373.034V275.326H374.119V274.24H376.291V273.154H377.376V272.069H378.462V270.983H379.548V269.897H381.719V268.812H382.805V267.726H384.976V266.641H386.062V265.555H387.147V264.469H389.318V263.384H390.404V262.298H392.575V261.212H393.661V260.127H395.832V259.041H396.918V257.955H399.089V256.87H400.175V255.784H402.346V254.698H403.432V253.613C403.703 253.613 404.337 253.613 405.332 253.613H405.603V252.527H407.774V251.442H408.86V250.356C409.131 250.356 409.765 250.356 410.76 250.356H411.031V249.27H413.203V248.185H414.288V247.099H416.46V246.013H418.631V244.928H420.802V243.842H422.973V242.756H425.145V241.671H427.316V240.585H429.487V239.499H431.659V238.414H433.83V237.328H436.001V236.242H436.273H438.987H439.258V235.157H441.429V234.071H443.601V232.986H443.872H446.586H446.858V231.9H449.029V230.814H449.3H452.014H452.286V230.543V227.829V227.557H451.2V226.472H450.115V224.3H449.029V223.215H447.943V221.043H446.858V219.958H445.772V217.787H444.686V216.701H443.601C443.601 216.429 443.601 215.796 443.601 214.801V214.53H442.515V212.358H441.429V211.273H440.344V209.101H439.258V206.93H438.172V204.759H437.087V202.587H436.001V200.416H434.916V200.145V197.431V197.159H433.83V194.988H432.744V194.717V192.002V191.731H431.659V191.46V188.745V188.474H430.573V188.203V185.489V185.217H429.487V184.946V182.232V181.96H428.402V181.689V177.889V177.618H427.316V177.346V172.461V172.189H426.23V171.918V167.033V166.761H425.145V166.49V157.262V156.99H424.059V156.719V133.378V133.106H425.145V132.835V124.692V124.421H426.23V124.15V118.179V117.907H427.316V117.636V113.836V113.565H428.402V113.293V109.493V109.222H429.487V108.951V106.236V105.965H430.573V105.694V101.894V101.622H431.659V101.351V98.6369V98.3655H432.744V96.1942H433.83V95.9228V93.2087V92.9373H434.916V90.766H436.001V88.5947H437.087V86.4234H438.172V86.152V83.4379V83.1665H439.258V80.9952H440.344V79.9095H441.429V77.7382H442.515C442.515 77.4668 442.515 76.8335 442.515 75.8384V75.567H443.601V73.3957H444.686V72.31H445.772V70.1387H446.858V69.0531H447.943V66.8818H449.029V65.7961H450.115V63.6249H451.2V62.5392H452.286V61.4536H453.372V60.3679H454.457V58.1966H455.543V57.111H456.628V56.0253H457.714V54.9397H458.8V53.854H459.885V52.7684H460.971V51.6828H462.057V50.5971H463.142V49.5115H464.228V48.4258H465.314V47.3402H466.399V46.2545H467.485V45.1689H468.571V44.0832H469.656V42.9976H470.742V41.9119H471.827V40.8263H472.913V39.7407H475.084V38.655H476.17V37.5694H477.256V36.4837H479.427V35.3981H480.513V34.3124H481.598V33.2268H483.77V32.1411H484.855V31.0555H487.027V29.9698H488.112V28.8842H490.283V27.7986H492.455V26.7129C492.726 26.7129 493.359 26.7129 494.355 26.7129H494.626V25.6273H496.797V24.5416H497.883V23.456H500.054V22.3703H502.226V21.2847H502.497H505.211H505.482V20.199H507.654V19.1134H507.925H510.639H510.911V18.0277H513.082V16.9421H513.353H516.068H516.339V15.8565H516.61H519.324H519.596V14.7708H519.867H523.667H523.938V13.6852H524.21H528.01H528.281V12.5995H528.552H532.352H532.624V11.5139H532.895H538.866H539.138V10.4282H539.409H547.551H547.823V9.34258H548.094H572.521H572.793V10.4282H573.064H581.206H581.478V11.5139H581.749H587.72H587.992V12.5995H588.263H592.063H592.334V13.6852H592.606H596.405H596.677V14.7708H596.948H599.662H599.934V15.8565H600.205H604.005H604.276V16.9421H606.448V18.0277H606.719H609.433H609.704V19.1134H609.976H612.69H612.961V20.199H615.133V21.2847H617.304V22.3703H619.475V23.456H621.647V24.5416H623.818V25.6273C624.089 25.6273 624.723 25.6273 625.718 25.6273H625.989V26.7129H628.16V27.7986H629.246V28.8842C629.517 28.8842 630.151 28.8842 631.146 28.8842H631.417V29.9698H633.589V31.0555H634.674V32.1411H636.846V33.2268H637.931V34.3124H639.017V35.3981H641.188V36.4837H642.274V37.5694H643.359V38.655H645.531V39.7407H646.616V40.8263H647.702V41.9119H648.788V42.9976H649.873V44.0832H652.045V45.1689H653.13V46.2545H654.216V47.3402H655.302V48.4258H656.387V49.5115H657.473V50.5971H658.558V51.6828H659.644V52.7684H660.73V53.854H661.815V56.0253H662.901V57.111H663.987V58.1966H665.072V59.2823H666.158V60.3679H667.244V62.5392H668.329V63.6249H669.415V64.7105H670.501V66.8818H671.586V67.9674H672.672V70.1387H673.758V71.2244H674.843V73.3957H675.929V74.4813H677.014V76.6526H678.1V78.8239H679.186V80.9952H680.271V83.1665H681.357V85.3378H682.443V87.5091H683.528V89.6803H684.614V91.8516H685.7V92.123V94.8372V95.1086H686.785V97.2799H687.871V97.5513V100.265V100.537H688.957V100.808V103.522V103.794H690.042V104.065V107.865V108.136H691.128V108.408V111.122V111.393H692.213V111.665V116.55V116.821H693.299V117.093V121.978V122.25H694.385V122.521V129.578V129.849H695.47V130.121V159.976V160.247H694.385V160.519V167.575V167.847H693.299V168.118V174.089V174.361H692.213V174.632V178.432V178.703H691.128V178.975V182.774V183.046H690.042V183.317V186.031V186.303H688.957V186.574V189.288V189.56H687.871V189.831V192.545V192.817H686.785V193.088V195.802V196.074H685.7V198.245H684.614V200.416H683.528V200.688V203.402V203.673H682.443V205.844H681.357C681.357 206.116 681.357 206.749 681.357 207.744V208.016H680.271V210.187H679.186V211.273H678.1V213.444H677.014C677.014 213.715 677.014 214.349 677.014 215.344V215.615H675.929V217.787H674.843V218.872H673.758V221.043H672.672V222.129H671.586V224.3H670.501V225.386H669.415V226.472H668.329V228.643H667.244V229.729H666.158V230.814H666.429H669.144H669.415V231.9H669.686H676.743H677.014V232.986H677.286H685.428H685.7V234.071H685.971H693.028H693.299V235.157H693.571H700.627H700.899V236.242H701.17H707.141H707.413V237.328H707.684H713.655H713.926V238.414H714.198H720.169H720.44V239.499H720.712H725.597H725.868V240.585H726.14H732.111H732.382V241.671H732.654H737.539H737.811V242.756H738.082H741.882H742.153V243.842H742.425H746.224H746.496V244.928H746.767H751.653H751.924V246.013H752.195H755.995H756.267V247.099H756.538H760.338H760.609V248.185H760.881H764.68H764.952V249.27H765.223H767.937H768.209V250.356H768.48H772.28H772.551V251.442H772.823H775.537H775.808V252.527H776.08H778.794H779.065V253.613H779.337H782.051H782.322V254.698H782.593H785.308H785.579V255.784H785.85H788.565H788.836V256.87H789.107H791.821H792.093V257.955H792.364H795.078H795.35V259.041H797.521V260.127H797.792H800.507H800.778V261.212H802.949V262.298H805.121V263.384H807.292V264.469H809.463V265.555H811.634V266.641H813.806V267.726H815.977V268.812C816.248 268.812 816.882 268.812 817.877 268.812H818.148V269.897H820.32V270.983H821.405V272.069H823.577V273.154H824.662V274.24H826.834V275.326H827.919V276.411H830.09V277.497H831.176V278.583H832.262V278.311V273.426V273.154H831.176V272.883V258.227V257.955H830.09V257.684V245.199V244.928H829.005V244.656V231.086V230.814H827.919V230.543V219.144V218.872H826.834V218.601V207.201V206.93H825.748V206.659V196.345V196.074H824.662V195.802V186.574V186.303H823.577V186.031V175.718V175.446H822.491V175.175V165.947V165.676H821.405V165.404V156.176V155.905H820.32V155.633V147.491V147.22H819.234V146.948V138.806V138.534H818.148V138.263V131.206V130.935H817.063V130.663V122.521V122.25H815.977V121.978V114.922V114.65H814.891V114.379V107.322V107.051H813.806V106.779V99.7226V99.4512H812.72V99.1797V92.123V91.8516H811.634V91.5802V85.6092V85.3378H810.549V85.0664V78.0097V77.7382H809.463V77.4668V71.4958V71.2244H808.378V70.953V64.9819V64.7105H807.292V64.4391V57.3824V57.111H806.206V56.8396V50.8685V50.5971H805.121V50.3257V45.4403V45.1689H804.035V44.8975V31.3269V31.0555H805.121V30.7841V26.9843V26.7129H806.206V24.5416H807.292V22.3703H808.378C808.378 22.0989 808.378 21.4656 808.378 20.4704V20.199H809.463V18.0277H810.549V16.9421H811.634V15.8565H812.72V14.7708H813.806V13.6852H814.891V12.5995H815.977V11.5139H818.148V10.4282H819.234V9.34258H821.405V8.25694H823.577V7.17129H823.848H826.562H826.834V6.08565H827.105H829.819H830.09V5Z" fill="white" stroke="#1E1E1E" stroke-width="10"/>
<path d="M142.877 633.589H143.963V633.86V636.574V636.846H145.048V637.117V640.917V641.188H146.134V641.46V644.174V644.445H147.22V644.716V648.516V648.788H148.305V649.059V651.773V652.045H149.391V652.316V656.116V656.387H150.476V656.659V659.373V659.644H151.562V659.916V662.63V662.901H152.648V665.072H153.733V665.344V668.058V668.329H154.819V668.601V671.315V671.586H155.905V673.757H156.99V674.029V676.743V677.014H158.076V679.186H159.162V681.357H160.247V681.628V684.343V684.614H161.333V686.785H162.419V688.957H163.504V691.128H164.59V693.299H165.676V695.47H166.761V697.642H167.847C167.847 697.913 167.847 698.546 167.847 699.542V699.813H168.932V701.984H170.018V703.07H171.104V705.241H172.189C172.189 705.513 172.189 706.146 172.189 707.141V707.413H173.275V709.584H174.361V710.669H175.446V712.841H176.532V715.012H177.618V716.098H178.703C178.703 716.369 178.703 717.002 178.703 717.998V718.269H179.789V720.44H180.875V721.526H181.96V723.697H183.046V724.783H184.131V726.954H185.217V728.04H186.303V730.211H187.388V731.297H188.474V733.468H189.56V734.554H190.645V735.639H191.731V737.811H192.817V738.896H193.902V741.068H194.988V742.153H196.074V743.239H197.159V745.41H198.245V746.496H199.331V747.581H200.416V749.753H201.502V750.838H202.587V751.924H203.673V753.01H204.759V755.181H205.844V756.267H206.93V757.352H208.016V758.438H209.101V759.523H210.187V761.695H211.273V762.78H212.358V763.866H213.444V764.952H214.53V766.037H215.615V768.209H216.701V769.294H217.787V770.38H218.872V771.466H219.958V772.551H221.043V773.637H222.129V774.723H223.215V775.808H224.3V776.894H225.386V779.065H226.472V780.151H227.557V781.236H228.643V782.322H229.729V783.408H230.814V784.493H231.9V785.579H232.986V786.665H234.071V787.75H235.157V788.836H236.242V789.922H237.328V791.007H238.414V792.093H239.499V793.178H240.585V794.264H241.671V795.35H242.756V796.435H243.842V797.521H244.928V798.607H246.013V799.692H247.099V800.778H248.185V801.864H249.27V802.949H250.356V804.035H251.442V805.121H252.527V806.206H253.613V807.292H255.784V808.378H256.87V809.463H257.955V810.549H259.041V811.634H260.127V812.72H261.212V813.806H262.298V814.891H263.384V815.977H264.469V817.063H266.641V818.148H267.726V819.234H268.812V820.32H269.897V821.405H270.983V822.491H272.069V823.577H273.154V824.662H274.24V825.748H276.411V826.833H277.497V827.919H278.583V829.005H279.668V830.09H280.754V831.176H282.925V832.262H284.011V833.347H285.097V834.433H286.182V835.519H287.268V836.604H289.439V837.69H290.525V838.776H291.61V839.861H292.696V840.947H294.867V842.033H295.953V843.118H297.039V844.204H298.124V845.289H300.296V846.375H301.381V848.546H300.296V849.632H298.124V850.718H295.953V851.803H293.782V852.889H292.696V853.975H290.525V855.06H288.353V856.146H286.182V857.232H284.011V858.317H281.84V859.403H279.668V860.488H277.497V861.574H275.326V862.66H273.154V863.745H270.983V864.831H268.812V865.917H266.641V867.002H264.469V868.088H262.298V869.174H262.027H259.312H259.041V870.259H256.87V871.345H254.698V872.431H252.527V873.516H250.356V874.602H248.185V875.688H247.913H245.199H244.928V876.773H242.756V877.859H242.485H239.771H239.499V878.944H237.328V880.03H235.157V881.116H234.885H232.171H231.9V882.201H231.628H228.914H228.643V883.287H226.472V884.373H226.2H223.486H223.215V885.458H222.943H220.229H219.958V886.544H219.686H216.972H216.701V887.63H214.53V888.715H214.258H211.544H211.273V889.801H211.001H208.287H208.016V890.887H207.744H205.03H204.759V891.972H204.487H201.773H201.502V893.058H201.23H198.516H198.245V894.143H197.973H194.174H193.902V895.229H193.631H190.917H190.645V896.315H190.374H187.66H187.388V897.4H187.117H183.317H183.046V898.486H182.774H178.975H178.703V899.572H178.432H174.632H174.361V900.657H174.089H169.204H168.932V901.743H168.661H164.861H164.59V902.829H164.318H158.347H158.076V903.914H157.805H152.919H152.648V905H152.376H146.405H146.134V906.086H145.862H137.72H137.449V907.171H137.177H126.864H126.592V908.257H126.321H95.38H95.1086V907.171H94.8372H86.6948H86.4234V906.086H86.152H81.2666H80.9952V905H80.7238H76.924H76.6526V903.914H76.3812H72.5814H72.31V902.829H72.0386H69.3245H69.0531V901.743H66.8818V900.657H66.6104H63.8963H63.6249V899.572H61.4536V898.486H59.2823V897.4H57.111V896.315H54.9397V895.229H52.7684V894.143C52.497 894.143 51.8637 894.143 50.8685 894.143H50.5971V893.058H48.4258V891.972H47.3402V890.887H45.1689V889.801H44.0832V888.715H42.9976V887.63H40.8263V886.544H39.7407V885.458H38.655V884.373H37.5694V883.287H35.3981V882.201H34.3124V881.116H33.2268V880.03H32.1411V878.944H31.0555V877.859H29.9698V876.773H28.8842V875.688H27.7986V874.602H26.7129V873.516H25.6273V872.431H24.5416V870.259H23.456V869.174H22.3703V868.088H21.2847V865.917H20.199V864.831H19.1134V863.745H18.0277C18.0277 863.474 18.0277 862.841 18.0277 861.846V861.574H16.9421V859.403H15.8565V858.317H14.7708V856.146H13.6852V853.975H12.5995V851.803H11.5139V851.532V848.818V848.546H10.4282V846.375H9.34258V846.104V843.39V843.118H8.25694V842.847V840.133V839.861H7.17129V839.59V834.704V834.433H6.08565V834.162V828.191V827.919H5V827.648V806.478V806.206H6.08565V805.935V798.878V798.607H7.17129V798.335V794.536V794.264H8.25694V793.993V790.193V789.922H9.34258V789.65V785.85V785.579H10.4282V785.308V782.593V782.322H11.5139V782.051V779.337V779.065H12.5995V778.794V776.08V775.808H13.6852V773.637H14.7708V771.466H15.8565V771.194V768.48V768.209H16.9421V766.037H18.0277V763.866H19.1134V761.695H20.199V759.523H21.2847C21.2847 759.252 21.2847 758.619 21.2847 757.624V757.352H22.3703V755.181H23.456V754.095H24.5416C24.5416 753.824 24.5416 753.191 24.5416 752.195V751.924H25.6273V749.753H26.7129V748.667H27.7986C27.7986 748.396 27.7986 747.762 27.7986 746.767V746.496H28.8842V744.324H29.9698V743.239H31.0555V741.068H32.1411V739.982H33.2268V737.811H34.3124V736.725H35.3981V734.554H36.4837V733.468H37.5694V732.382H38.655V730.211H39.7407V729.125H40.8263V726.954H41.9119V725.868H42.9976V724.783H44.0832V723.697H45.1689V721.526H46.2545V720.44H47.3402V719.355H48.4258V717.183H49.5115V716.098H50.5971V715.012H51.6828V713.926H52.7684V712.841H53.854V711.755H54.9397V709.584H56.0253V708.498H57.111V707.413H58.1966V706.327H59.2823V705.241H60.3679V704.156H61.4536V703.07H62.5392V701.984H63.6249V700.899H64.7105V698.727H65.7961V697.642H66.8818V696.556H67.9674V695.47H69.0531V694.385H70.1387V693.299H71.2244V692.213H72.31V691.128H73.3957V690.042H74.4813V688.957H75.567V687.871H76.6526V686.785H78.8239V685.7H79.9095V684.614H80.9952V683.528H82.0808V682.443H83.1665V681.357H84.2521V680.271H85.3378V679.186H86.4234V678.1H87.5091V677.014H88.5947V675.929H89.6803V674.843H90.766V673.757H92.9373V672.672H94.0229V671.586H95.1086V670.501H96.1942V669.415H97.2799V668.329H98.3655V667.244H99.4512V666.158H101.622V665.072H102.708V663.987H103.794V662.901H104.879V661.815H107.051V660.73H108.136V659.644H109.222V658.558H110.308V657.473H112.479V656.387H113.565V655.302H114.65V654.216H115.736V653.13H117.907V652.045H118.993V650.959H120.078V649.873H121.164V648.788H123.335V647.702H124.421V646.616H125.507V645.531H127.678V644.445H128.764V643.359H129.849V642.274H132.021V641.188H133.106V640.102H135.277V639.017H136.363V637.931H137.449V636.846H139.62V635.76H140.706V634.674H142.877V633.589Z" fill="white" stroke="#1E1E1E" stroke-width="10"/>
</g>
<defs>
<filter id="filter0_d_25_37" x="0" y="0" width="920" height="923.257" filterUnits="userSpaceOnUse" color-interpolation-filters="sRGB">
<feFlood flood-opacity="0" result="BackgroundImageFix"/>
<feColorMatrix in="SourceAlpha" type="matrix" values="0 0 0 0 0 0 0 0 0 0 0 0 0 0 0 0 0 0 127 0" result="hardAlpha"/>
<feOffset dx="10" dy="10"/>
<feComposite in2="hardAlpha" operator="out"/>
<feColorMatrix type="matrix" values="0 0 0 0 0.227451 0 0 0 0 0.227451 0 0 0 0 0.227451 0 0 0 1 0"/>
<feBlend mode="normal" in2="BackgroundImageFix" result="effect1_dropShadow_25_37"/>
<feBlend mode="normal" in="SourceGraphic" in2="effect1_dropShadow_25_37" result="shape"/>
</filter>
</defs>
</svg>
