<svg width="940" height="944" viewBox="0 0 940 944" fill="none" xmlns="http://www.w3.org/2000/svg">
<g filter="url(#filter0_d_32_2)">
<path d="M835.09 10H835.362H847.847H848.118V11.0856H848.39H852.189H852.461V12.1713H852.732H855.446H855.718V13.2569H857.889V14.3426H858.975V15.4282H861.146V16.5139H862.232V17.5995H863.317V18.6852H864.403V19.7708H865.489V20.8565H866.574V21.9421H867.66V23.0277H868.745V24.1134H869.831V26.2847H870.917V28.456H872.002V30.6273H873.088V30.8987V33.6128V33.8842H874.174V34.1556V39.041V39.3124H875.259V39.5838V45.5549V45.8263H876.345V46.0977V52.0688V52.3402H877.431V52.6116V58.5826V58.854H878.516V59.1255V65.0965V65.3679H879.602V65.6393V71.6104V71.8818H880.688V72.1532V78.1243V78.3957H881.773V78.6671V85.7238V85.9952H882.859V86.2666V93.3233V93.5947H883.945V93.8661V99.8372V100.109H885.03V100.38V107.437V107.708H886.116V107.98V115.036V115.308H887.201V115.579V122.636V122.907H888.287V123.179V130.235V130.507H889.373V130.778V138.92V139.192H890.458V139.463V147.606V147.877H891.544V148.148V156.291V156.562H892.63V156.834V164.976V165.247H893.715V165.519V173.661V173.932H894.801V174.204V183.432V183.703H895.887V183.975V193.203V193.474H896.972V193.745V204.059V204.331H898.058V204.602V214.916V215.187H899.144V215.458V225.772V226.043H900.229V226.315V237.714V237.986H901.315V238.257V250.742V251.013H902.4V251.285V264.855V265.127H903.486V265.398V278.969V279.24H904.572V279.511V294.168V294.439H905.657V294.711V310.452V310.724H906.743V310.995V331.08V331.351H907.829V331.622V353.878V354.15H908.914V354.421V386.448V386.719H910V386.99V526.496V526.767H908.914V527.039V560.151V560.422H907.829V560.694V584.035V584.306H906.743V584.578V605.748V606.019H905.657V606.291V624.204V624.475H904.572V624.747V640.489V640.76H903.486V641.031V654.602V654.873H902.4V655.145V668.715V668.987H901.315V669.258V680.657V680.929H900.229V681.2V692.6V692.871H899.144V693.142V704.542V704.813H898.058V705.084V716.484V716.755H896.972V717.027V727.34V727.612H895.887V727.883V737.111V737.382H894.801V737.654V746.882V747.153H893.715V747.425V756.653V756.924H892.63V757.195V766.423V766.695H891.544V766.966V776.194V776.466H890.458V776.737V784.879V785.151H889.373V785.422V793.565V793.836H888.287V794.107V802.25V802.521H887.201V802.793V810.935V811.206H886.116V811.478V819.62V819.891H885.03V820.163V827.22V827.491H883.945V827.762V834.819V835.091H882.859V835.362V843.504V843.776H881.773V844.047V851.104V851.375H880.688V851.647V858.703V858.975H879.602V859.246V866.303V866.574H878.516V866.846V872.817V873.088H877.431V873.36V880.416V880.688H876.345V880.959V886.93V887.202H875.259V887.473V891.273V891.544H874.174V893.715H873.088C873.088 893.987 873.088 894.62 873.088 895.615V895.887H872.002V898.058H870.917V899.144H869.831V901.315H868.745V902.401H867.66V903.486H866.574V904.572H865.489V905.657H864.403V906.743H862.232V907.829H861.146V908.914H858.975V910H856.803V911.086H856.532H853.818H853.546V912.171H853.275H849.475H849.204V913.257H848.932H836.448H836.176V912.171H835.905H833.191H832.919V911.086H832.648H829.934H829.662V910H827.491V908.914C827.22 908.914 826.586 908.914 825.591 908.914H825.32V907.829H823.148V906.743H822.063V905.657H820.977V904.572H818.806V903.486H817.72V901.315H816.634V900.229H815.549V899.144H814.463V896.972H813.378V894.801H812.292V892.63H811.206V890.458H810.121V890.187V886.387V886.116H809.035V885.844V872.274V872.002H810.121V871.731V865.76V865.489H811.206V865.217V858.16V857.889H812.292V857.618V850.561V850.29H813.378V850.018V842.961V842.69H814.463V842.419V835.362V835.091H815.549V834.819V827.762V827.491H816.634V827.22V820.163V819.891H817.72V819.62V811.478V811.206H818.806V810.935V803.878V803.607H819.891V803.335V795.193V794.922H820.977V794.65V786.508V786.236H822.063V785.965V777.823V777.551H823.148V777.28V769.138V768.866H824.234V768.595V759.367V759.095H825.32V758.824V749.596V749.325H826.405V749.053V739.825V739.554H827.491V739.282V728.969V728.697H828.577V728.426V718.112V717.841H829.662V717.569V708.341V708.07H830.748V707.799V696.399V696.128H831.834V695.857V685.543V685.271H832.919V685V672.515V672.244H834.005V671.972V659.487V659.216H835.09V658.945V645.374V645.103H836.176V644.831V630.175V629.904H837.262V629.632V612.805V612.533H838.347V612.262V595.434V595.163H839.433V594.891V573.721V573.45H840.519V573.179V547.666V547.394H841.604V547.123V518.353V518.082H842.69V517.811V390.247V389.976H840.519V391.062H839.433V392.147H838.347V393.233H837.262V394.318H836.176V395.404H834.005V396.49H832.919V397.575H831.834V398.661H830.748V399.747H828.577V400.832H827.491V401.918H826.405V403.004H824.234V404.089H823.148V405.175H820.977V406.261H819.891V407.346C819.62 407.346 818.987 407.346 817.992 407.346H817.72V408.432H815.549V409.518H814.463V410.603H812.292V411.689C812.02 411.689 811.387 411.689 810.392 411.689H810.121V412.774H807.949V413.86H806.864V414.946H804.692V416.031H802.521V417.117H800.35V418.203H800.078H797.364H797.093V419.288H794.922V420.374H792.75V421.46H790.579V422.545H790.308H787.593H787.322V423.631H785.151V424.717H784.879H782.165H781.894V425.802H779.723V426.888H779.451H776.737H776.466V427.973H774.294V429.059H774.023H771.309H771.037V430.145H770.766H768.052H767.78V431.23H767.509H764.795H764.524V432.316H764.252H761.538H761.267V433.402H760.995H758.281H758.01V434.487H757.738H755.024H754.753V435.573H754.481H750.682H750.41V436.659H750.139H747.425H747.153V437.744H746.882H743.082H742.811V438.83H742.539H739.825H739.554V439.916H739.282H735.483H735.211V441.001H734.94H731.14H730.869V442.087H730.597H726.797H726.526V443.173H726.255H722.455H722.183V444.258H721.912H718.112H717.841V445.344H717.569H713.77H713.498V446.429H713.227H709.427H709.156V447.515H708.884H703.999H703.727V448.601H703.456H699.656H699.385V449.686H699.113H694.228H693.957V450.772H693.685H688.8H688.528V451.858H688.257H682.286H682.014V452.943H681.743H676.858H676.586V454.029H676.315H671.429H671.158V455.115H670.887H664.916H664.644V456.2H664.373H658.402H658.13V457.286H657.859H651.888H651.616V458.372H651.345H644.288H644.017V459.457H643.745H636.689H636.417V460.543H636.146H629.089H628.818V461.629H628.546H621.49H621.218V462.714H620.133V462.986V465.7V465.971H619.047V466.242V468.957V469.228H617.961V471.399H616.876V471.671V474.385V474.656H615.79V476.828H614.704V477.099V479.813V480.084H613.619V482.256H612.533V484.427H611.448V484.698V487.413V487.684H610.362V489.855H609.276V492.027H608.191V494.198H607.105V496.369H606.019V496.641V499.355V499.626H604.934C604.934 499.898 604.934 500.531 604.934 501.526V501.797H603.848V503.969H602.762V505.054H601.677V507.226H600.591V509.397H599.505V511.568H598.42V513.739H597.334C597.334 514.011 597.334 514.644 597.334 515.639V515.911H596.248V518.082H595.163V519.168H594.077V521.339H592.992C592.992 521.61 592.992 522.244 592.992 523.239V523.51H591.906V525.682H590.82V526.767H589.735V528.939H588.649V531.11H587.563V532.195H586.478C586.478 532.467 586.478 533.1 586.478 534.095V534.367H585.392V536.538H584.306V537.624H583.221V539.795H582.135V540.881H581.049V543.052H579.964V544.138H578.878V546.309H577.793V547.394H576.707V549.566H575.621V550.651H574.536V552.823H573.45V553.908H572.364V556.08H571.279V557.165H570.193V559.337H569.107V560.422H568.022V561.508H566.936V563.679H565.85V564.765H564.765V565.85H563.679V568.022H562.593V569.107H561.508V570.193H560.422V572.364H559.337V573.45H558.251V574.536H557.165V576.707H556.08V577.793H554.994V578.878H553.908V579.964H552.823V582.135H551.737V583.221H550.651V584.306H549.566V585.392H548.48V587.563H547.394V588.649H546.309V589.735H545.223V590.82H544.138V591.906H543.052V592.992H541.966V595.163H540.881V596.249H541.966V597.334H544.138V598.42H545.223V599.505H546.309V600.591H548.48V601.677H549.566V602.762H551.737V603.848H552.823V604.934H554.994V606.019H556.08V607.105H558.251V608.191H559.337V609.276H561.508V610.362H562.593V611.448H564.765V612.533H565.85V613.619H566.936V614.705H569.107V615.79H570.193V616.876H571.279V617.961H573.45V619.047H574.536V620.133H576.707V621.218H577.793V622.304H578.878V623.39H581.049V624.475H582.135V625.561H583.221V626.647H585.392V627.732H586.478V628.818H587.563V629.904H589.735V630.989H590.82V632.075H591.906V633.16H594.077V634.246H595.163V635.332H597.334V636.417H598.42V637.503H599.505V638.589H600.591V639.674H602.762V640.76H603.848V641.846H604.934V642.931H607.105V644.017H608.191V645.103H609.276V646.188H611.448V647.274H612.533V648.36H613.619V649.445H614.704V650.531H616.876V651.616H617.961V652.702H619.047V653.788H620.133V654.873H622.304V655.959H623.39V657.045H624.475V658.13H625.561V659.216H626.647V660.302H628.818V661.387H629.903V662.473H630.989V663.559H632.075V664.644H634.246V665.73H635.332V666.815H636.417V667.901H637.503V668.987H638.589V670.072H639.674V671.158H640.76V672.244H641.846V673.329H644.017V674.415H645.103V675.501H646.188V676.586H647.274V677.672H648.359V678.758H649.445V679.843H650.531V680.929H651.616V682.015H652.702V683.1H654.873V684.186H655.959V685.271H657.045V686.357H658.13V687.443H659.216V688.528H660.302V689.614H661.387V690.7H662.473V691.785H663.559V692.871H664.644V693.957H665.73V695.042H666.815V696.128H667.901V697.214H668.987V698.299H670.072V699.385H671.158V700.47H672.244V701.556H673.329V702.642H674.415V703.727H675.501V704.813H676.586V705.899H677.672V706.984H678.758V708.07H679.843V709.156H680.929V711.327H682.014V712.413H683.1V713.498H684.186V714.584H685.271V715.67H686.357V716.755H687.443V717.841H688.528V718.926H689.614V721.098H690.7V722.183H691.785V723.269H692.871V724.355H693.957V725.44H695.042V727.612H696.128V728.697H697.214V729.783H698.299V730.869H699.385V731.954H700.47V734.126H701.556V735.211H702.642V736.297H703.727V738.468H704.813V739.554H705.899V741.725H706.984V742.811H708.07V743.896H709.156V746.068H710.241V747.153H711.327V749.325H712.413V750.41H713.498C713.498 750.682 713.498 751.315 713.498 752.31V752.581H714.584V754.753H715.669V755.838H716.755C716.755 756.11 716.755 756.743 716.755 757.738V758.01H717.841V760.181H718.926V761.267H720.012V763.438H721.098V765.609H722.183V767.781H723.269V769.952H724.355V772.123H725.44V774.294H726.526V774.566V777.28V777.551H727.612V779.723H728.697V779.994V782.708V782.98H729.783V785.151H730.869V785.422V788.136V788.408H731.954V788.679V791.393V791.665H733.04V791.936V795.736V796.007H734.125V796.279V800.078V800.35H735.211V800.621V805.507V805.778H736.297V806.05V816.363V816.635H737.382V816.906V826.134V826.405H736.297V826.677V836.99V837.262H735.211V837.533V842.419V842.69H734.125V842.961V846.761V847.033H733.04V847.304V850.018V850.29H731.954V850.561V853.275V853.547H730.869V855.718H729.783V855.989V858.703V858.975H728.697V861.146H727.612C727.612 861.417 727.612 862.051 727.612 863.046V863.317H726.526V865.489H725.44V866.574H724.355C724.355 866.846 724.355 867.479 724.355 868.474V868.746H723.269V870.917H722.183V872.002H721.098V873.088H720.012V875.259H718.926V876.345H717.841V877.431H716.755V878.516H715.669V880.688H714.584V881.773H713.498V882.859H712.413V883.945H711.327V885.03H710.241V886.116H709.156V887.202H708.07V888.287H706.984V889.373H704.813V890.458H703.727V891.544H702.642V892.63H701.556V893.715H699.385V894.801H698.299V895.887H696.128V896.972H695.042V898.058C694.771 898.058 694.138 898.058 693.142 898.058H692.871V899.144H690.7V900.229H689.614V901.315H687.443V902.401H687.171H684.457H684.186V903.486H682.014V904.572H679.843V905.657H679.572H676.858H676.586V906.743H676.315H673.601H673.329V907.829H673.058H670.344H670.072V908.914H669.801H666.001H665.73V910H665.458H661.659H661.387V911.086H661.116H655.145H654.873V912.171H654.602H646.46H646.188V913.257H645.917H616.062H615.79V912.171H615.519H605.205H604.934V911.086H604.662H597.606H597.334V910H597.063H591.092H590.82V908.914H590.549H584.578H584.306V907.829H584.035H579.15H578.878V906.743H578.607H574.807H574.536V905.657H574.264H570.464H570.193V904.572H569.922H566.122H565.85V903.486H565.579H561.779H561.508V902.401H561.236H557.437H557.165V901.315H556.894H554.18H553.908V900.229H553.637H549.837H549.566V899.144H549.294H546.58H546.309V898.058H546.037H543.323H543.052V896.972H542.78H540.066H539.795V895.887H539.524H536.809H536.538V894.801H536.267H533.552H533.281V893.715H533.01H530.296H530.024V892.63H527.853V891.544H527.581H524.867H524.596V890.458H524.324H521.61H521.339V889.373H521.068H518.353H518.082V888.287H515.911V887.202H515.639H512.925H512.654V886.116H510.483V885.03H510.211H507.497H507.226V883.945H505.054V882.859H504.783H502.069H501.797V881.773H499.626V880.688H497.455V879.602H497.183H494.469H494.198V878.516H492.027V877.431H489.855V876.345H487.684V875.259H487.413H484.698H484.427V874.174H482.256V873.088H480.084V872.002H477.913V870.917H475.742V869.831H475.47H472.756H472.485V868.746H470.314V867.66H468.142V866.574H465.971V865.489H463.8V864.403C463.528 864.403 462.895 864.403 461.9 864.403H461.628V863.317H459.457V862.232H458.372V861.146H456.2V860.06H454.029V858.975H451.858V857.889H449.686V856.803H447.515V855.718H445.344V854.632H443.173V853.547H441.001V852.461H438.83V851.375C438.559 851.375 437.925 851.375 436.93 851.375H436.659V850.29H434.487V849.204H433.402V848.118H431.23V847.033C430.959 847.033 430.326 847.033 429.331 847.033H429.059V845.947H426.888V844.861H425.802V843.776H423.631V842.69C423.359 842.69 422.726 842.69 421.731 842.69H421.46V841.604H419.288V840.519H418.203V839.433C417.931 839.433 417.298 839.433 416.303 839.433H416.031V838.347H413.86V837.262H412.774V836.176H410.603V835.091H408.432V834.005H407.346V832.919C407.075 832.919 406.442 832.919 405.446 832.919H405.175V831.834H403.004V830.748H401.918V829.662H399.747V828.577H398.661V827.491C398.39 827.491 397.756 827.491 396.761 827.491H396.49V826.405H394.318V825.32H393.233V824.234H391.062V823.148H389.976V822.063H387.805V820.977H386.719V819.891H384.548V818.806H383.462V817.72H381.291V816.635H380.205V815.549H378.034V814.463H376.948V813.378H374.777V812.292H373.691V811.206H371.52V810.121H370.434V809.035H369.349V807.949H367.177V806.864H366.092V805.778H363.92V804.692H362.835V803.607H361.749V802.521H359.578V801.436H358.492V800.35H357.407V799.264H355.235V798.179H354.15V797.093H353.064V796.007H350.893V794.922H349.807V793.836H348.721V792.75H346.55V791.665H345.464V790.579H344.379V789.493H343.293V788.408H341.122V787.322H340.036V786.236H338.951V785.151H337.865V784.065H335.694V782.98H334.608V781.894H333.522V780.808H332.437V779.723H330.265V778.637H329.18V777.551H328.094V776.466H327.008V775.38H325.923V774.294H324.837V773.209H323.752V772.123H321.58V771.037H320.495V769.952H319.409V768.866H318.323V767.781H317.238V766.695H316.152V765.609H313.981V764.524H312.895V763.438H311.809V762.352H310.724V761.267H309.638V760.181H308.552V759.095H307.467V758.01H306.381V756.924H305.296V755.838H304.21V754.753H303.124V753.667H302.039V752.581H300.953V751.496H299.867V750.41H298.782V749.325H297.696V748.239H296.61V747.153H295.525V746.068H294.439V744.982H293.353V743.896H292.268V742.811H291.182V741.725H290.097V740.639H289.011V739.554H287.925V738.468H286.84V737.382H285.754V736.297H284.668V735.211H283.583V734.126H282.497V733.04H281.411V731.954H280.326V730.869H279.24V729.783H278.154V727.612H277.069V726.526H275.983V725.44H274.897V724.355H273.812V723.269H272.726V722.183H271.641V720.012H270.555V718.926H269.469V717.841H268.384V716.755H267.298V715.67H266.212V713.498H265.127V712.413H264.041V711.327H262.955V710.241H261.87V708.07H260.784V706.984H259.698V705.899H258.613V703.727H257.527V702.642H256.442V700.47H255.356V699.385H254.27V698.299H253.185V696.128H252.099V695.042H251.013V692.871H249.928V691.785H248.842V689.614H247.756V688.528H246.671V686.357H245.585V685.271H244.499C244.499 685 244.499 684.367 244.499 683.372V683.1H243.414V680.929H242.328V679.843H241.242V677.672H240.157V675.501H239.071V673.329H237.986V671.158H236.9V668.987H235.814V666.815H234.729V664.644H233.643V662.473H232.557V660.302H231.472V658.13H230.386V655.959H229.3V655.688V652.974V652.702H228.215V650.531H227.129V650.259V647.545V647.274H226.043V647.002V644.288V644.017H224.958V643.746V641.031V640.76H223.872V640.489V637.774V637.503H222.787V637.232V633.432V633.16H221.701V632.889V629.089V628.818H220.615V628.546V623.661V623.39H219.53V623.118V616.062V615.79H218.444V615.519V600.863V600.591H217.358V600.32V594.349V594.077H218.444V593.806V575.893V575.621H219.53V575.35V567.208V566.936H220.615V566.665V559.608V559.337H221.701V559.065V553.094V552.823H222.787V552.551V546.58V546.309H223.872V546.037V541.152V540.881H224.958V540.609V535.724V535.452H226.043V535.181V531.381V531.11H227.129V530.838V527.039V526.767H228.215V526.496V521.61V521.339H229.3V521.068V518.353V518.082H230.386V517.811V514.011V513.739H231.472V513.468V509.668V509.397H232.557V509.125V505.326V505.054H233.643V504.783V502.069V501.797H234.729V501.526V498.812V498.54H235.814V498.269V494.469V494.198H236.9V493.926V491.212V490.941H237.986V490.67V487.955V487.684H239.071V487.413V484.698V484.427H240.157V484.156V481.442V481.17H241.242V480.899V478.185V477.913H242.328V477.642V474.928V474.656H243.414V472.485H244.499V472.214V469.499V469.228H245.585V468.957V466.242V465.971H246.671V463.8H247.756V463.528V460.814V460.543H248.842V460.271V457.557V457.286H249.928V455.115H251.013V452.943H252.099V452.672V449.958V449.686H253.185V447.515H254.27V447.244V444.53V444.258H255.356V442.087H256.442V439.916H257.527V437.744H258.613V437.473V434.759V434.487H259.698V432.316H260.784V430.145H261.87V427.973H262.955V425.802H264.041V423.631H265.127V421.46H266.212V419.288H267.298V417.117H268.384C268.384 416.846 268.384 416.212 268.384 415.217V414.946H269.469V412.774H270.555V411.689H271.641V409.518H272.726V407.346H273.812V405.175H274.897C274.897 404.904 274.897 404.27 274.897 403.275V403.004H275.983V400.832H277.069V399.747H278.154V397.575H279.24C279.24 397.304 279.24 396.671 279.24 395.676V395.404H280.326V393.233H281.411V392.147H282.497C282.497 391.876 282.497 391.242 282.497 390.247V389.976H283.583V387.805H284.668V386.719H285.754V384.548H286.84V383.462H287.925C287.925 383.191 287.925 382.557 287.925 381.562V381.291H289.011V379.119H290.097V378.034H291.182V375.863H292.268V374.777H293.353V372.606H294.439V371.52H295.525V369.349H296.61V368.263H297.696V366.092H298.782V365.006H299.867V363.92H300.953V361.749H302.039V360.663H303.124V358.492H304.21V357.407H305.296V356.321H306.381V354.15H307.467V353.064H308.552V351.978H309.638V349.807H310.724V348.721H311.809V347.636H312.895V346.55H313.981V344.379H315.066V343.293H316.152V342.208H317.238V341.122H318.323V338.951H319.409V337.865H320.495V336.779H321.58V335.694H322.666V334.608H323.752V332.437H324.837V331.351H325.923V330.265H327.008V329.18H328.094V328.094H329.18V327.008H330.265V325.923H331.351V323.752H332.437V322.666H333.522V321.58H334.608V320.495H335.694V319.409H336.779V318.323H337.865V317.238H338.951V316.152H340.036V315.066H341.122V313.981H342.207V312.895H343.293V311.809H344.379V310.724H345.464V309.638H346.55V308.552H347.636V307.467H348.721V306.381H349.807V305.296H350.893V304.21H351.978V303.124H353.064V302.039H354.15V300.953H355.235V299.867H356.321V298.782H357.407V297.696H358.492V296.61H359.578V295.525H361.749V294.439H362.835V293.353H363.92V292.268H365.006V291.182H366.092V290.097H367.177V289.011H368.263V287.925H370.434V286.84H371.52V285.754H372.606V284.668H373.691V283.583H374.777V282.497H376.948V281.411H378.034V280.326H379.119V279.24H381.291V278.154H382.376V277.069H383.462V275.983H384.548V274.897H386.719V273.812H387.805V272.726H389.976V271.641H391.062V270.555H392.147V269.469H394.318V268.384H395.404V267.298H397.575V266.212H398.661V265.127H400.832V264.041H401.918V262.955H404.089V261.87H405.175V260.784H407.346V259.698H408.432V258.613C408.703 258.613 409.337 258.613 410.332 258.613H410.603V257.527H412.774V256.442H413.86V255.356C414.131 255.356 414.765 255.356 415.76 255.356H416.031V254.27H418.203V253.185H419.288V252.099H421.46V251.013H423.631V249.928H425.802V248.842H427.973V247.756H430.145V246.671H432.316V245.585H434.487V244.499H436.659V243.414H438.83V242.328H441.001V241.242H441.273H443.987H444.258V240.157H446.429V239.071H448.601V237.986H448.872H451.586H451.858V236.9H454.029V235.814H454.3H457.014H457.286V235.543V232.829V232.557H456.2V231.472H455.115V229.3H454.029V228.215H452.943V226.043H451.858V224.958H450.772V222.787H449.686V221.701H448.601C448.601 221.429 448.601 220.796 448.601 219.801V219.53H447.515V217.358H446.429V216.273H445.344V214.101H444.258V211.93H443.173V209.759H442.087V207.587H441.001V205.416H439.916V205.145V202.431V202.159H438.83V199.988H437.744V199.717V197.002V196.731H436.659V196.46V193.745V193.474H435.573V193.203V190.489V190.217H434.487V189.946V187.232V186.96H433.402V186.689V182.889V182.618H432.316V182.346V177.461V177.189H431.23V176.918V172.033V171.761H430.145V171.49V162.262V161.99H429.059V161.719V138.378V138.106H430.145V137.835V129.692V129.421H431.23V129.15V123.179V122.907H432.316V122.636V118.836V118.565H433.402V118.293V114.493V114.222H434.487V113.951V111.236V110.965H435.573V110.694V106.894V106.622H436.659V106.351V103.637V103.366H437.744V101.194H438.83V100.923V98.2087V97.9373H439.916V95.766H441.001V93.5947H442.087V91.4234H443.173V91.152V88.4379V88.1665H444.258V85.9952H445.344V84.9095H446.429V82.7382H447.515C447.515 82.4668 447.515 81.8335 447.515 80.8384V80.567H448.601V78.3957H449.686V77.31H450.772V75.1387H451.858V74.0531H452.943V71.8818H454.029V70.7961H455.115V68.6249H456.2V67.5392H457.286V66.4536H458.372V65.3679H459.457V63.1966H460.543V62.111H461.628V61.0253H462.714V59.9397H463.8V58.854H464.885V57.7684H465.971V56.6828H467.057V55.5971H468.142V54.5115H469.228V53.4258H470.314V52.3402H471.399V51.2545H472.485V50.1689H473.571V49.0832H474.656V47.9976H475.742V46.9119H476.828V45.8263H477.913V44.7407H480.084V43.655H481.17V42.5694H482.256V41.4837H484.427V40.3981H485.513V39.3124H486.598V38.2268H488.77V37.1411H489.855V36.0555H492.027V34.9698H493.112V33.8842H495.283V32.7986H497.455V31.7129C497.726 31.7129 498.359 31.7129 499.355 31.7129H499.626V30.6273H501.797V29.5416H502.883V28.456H505.054V27.3703H507.226V26.2847H507.497H510.211H510.483V25.199H512.654V24.1134H512.925H515.639H515.911V23.0277H518.082V21.9421H518.353H521.068H521.339V20.8565H521.61H524.324H524.596V19.7708H524.867H528.667H528.938V18.6852H529.21H533.01H533.281V17.5995H533.552H537.352H537.624V16.5139H537.895H543.866H544.138V15.4282H544.409H552.551H552.823V14.3426H553.094H577.521H577.793V15.4282H578.064H586.206H586.478V16.5139H586.749H592.72H592.992V17.5995H593.263H597.063H597.334V18.6852H597.606H601.405H601.677V19.7708H601.948H604.662H604.934V20.8565H605.205H609.005H609.276V21.9421H611.448V23.0277H611.719H614.433H614.704V24.1134H614.976H617.69H617.961V25.199H620.133V26.2847H622.304V27.3703H624.475V28.456H626.647V29.5416H628.818V30.6273C629.089 30.6273 629.723 30.6273 630.718 30.6273H630.989V31.7129H633.16V32.7986H634.246V33.8842C634.517 33.8842 635.151 33.8842 636.146 33.8842H636.417V34.9698H638.589V36.0555H639.674V37.1411H641.846V38.2268H642.931V39.3124H644.017V40.3981H646.188V41.4837H647.274V42.5694H648.359V43.655H650.531V44.7407H651.616V45.8263H652.702V46.9119H653.788V47.9976H654.873V49.0832H657.045V50.1689H658.13V51.2545H659.216V52.3402H660.302V53.4258H661.387V54.5115H662.473V55.5971H663.559V56.6828H664.644V57.7684H665.73V58.854H666.815V61.0253H667.901V62.111H668.987V63.1966H670.072V64.2823H671.158V65.3679H672.244V67.5392H673.329V68.6249H674.415V69.7105H675.501V71.8818H676.586V72.9674H677.672V75.1387H678.758V76.2244H679.843V78.3957H680.929V79.4813H682.014V81.6526H683.1V83.8239H684.186V85.9952H685.271V88.1665H686.357V90.3378H687.443V92.5091H688.528V94.6803H689.614V96.8516H690.7V97.123V99.8372V100.109H691.785V102.28H692.871V102.551V105.265V105.537H693.957V105.808V108.522V108.794H695.042V109.065V112.865V113.136H696.128V113.408V116.122V116.393H697.214V116.665V121.55V121.821H698.299V122.093V126.978V127.25H699.385V127.521V134.578V134.849H700.47V135.121V164.976V165.247H699.385V165.519V172.575V172.847H698.299V173.118V179.089V179.361H697.214V179.632V183.432V183.703H696.128V183.975V187.774V188.046H695.042V188.317V191.031V191.303H693.957V191.574V194.288V194.56H692.871V194.831V197.545V197.817H691.785V198.088V200.802V201.074H690.7V203.245H689.614V205.416H688.528V205.688V208.402V208.673H687.443V210.844H686.357C686.357 211.116 686.357 211.749 686.357 212.744V213.016H685.271V215.187H684.186V216.273H683.1V218.444H682.014C682.014 218.715 682.014 219.349 682.014 220.344V220.615H680.929V222.787H679.843V223.872H678.758V226.043H677.672V227.129H676.586V229.3H675.501V230.386H674.415V231.472H673.329V233.643H672.244V234.729H671.158V235.814H671.429H674.144H674.415V236.9H674.686H681.743H682.014V237.986H682.286H690.428H690.7V239.071H690.971H698.028H698.299V240.157H698.571H705.627H705.899V241.242H706.17H712.141H712.413V242.328H712.684H718.655H718.926V243.414H719.198H725.169H725.44V244.499H725.712H730.597H730.869V245.585H731.14H737.111H737.382V246.671H737.654H742.539H742.811V247.756H743.082H746.882H747.153V248.842H747.425H751.224H751.496V249.928H751.767H756.653H756.924V251.013H757.195H760.995H761.267V252.099H761.538H765.338H765.609V253.185H765.881H769.68H769.952V254.27H770.223H772.937H773.209V255.356H773.48H777.28H777.551V256.442H777.823H780.537H780.808V257.527H781.08H783.794H784.065V258.613H784.337H787.051H787.322V259.698H787.593H790.308H790.579V260.784H790.85H793.565H793.836V261.87H794.107H796.821H797.093V262.955H797.364H800.078H800.35V264.041H802.521V265.127H802.793H805.507H805.778V266.212H807.949V267.298H810.121V268.384H812.292V269.469H814.463V270.555H816.634V271.641H818.806V272.726H820.977V273.812C821.248 273.812 821.882 273.812 822.877 273.812H823.148V274.897H825.32V275.983H826.405V277.069H828.577V278.154H829.662V279.24H831.834V280.326H832.919V281.411H835.09V282.497H836.176V283.583H837.262V283.311V278.426V278.154H836.176V277.883V263.227V262.955H835.09V262.684V250.199V249.928H834.005V249.656V236.086V235.814H832.919V235.543V224.144V223.872H831.834V223.601V212.201V211.93H830.748V211.659V201.345V201.074H829.662V200.802V191.574V191.303H828.577V191.031V180.718V180.446H827.491V180.175V170.947V170.676H826.405V170.404V161.176V160.905H825.32V160.633V152.491V152.22H824.234V151.948V143.806V143.534H823.148V143.263V136.206V135.935H822.063V135.663V127.521V127.25H820.977V126.978V119.922V119.65H819.891V119.379V112.322V112.051H818.806V111.779V104.723V104.451H817.72V104.18V97.123V96.8516H816.634V96.5802V90.6092V90.3378H815.549V90.0664V83.0097V82.7382H814.463V82.4668V76.4958V76.2244H813.378V75.953V69.9819V69.7105H812.292V69.4391V62.3824V62.111H811.206V61.8396V55.8685V55.5971H810.121V55.3257V50.4403V50.1689H809.035V49.8975V36.3269V36.0555H810.121V35.7841V31.9843V31.7129H811.206V29.5416H812.292V27.3703H813.378C813.378 27.0989 813.378 26.4656 813.378 25.4704V25.199H814.463V23.0277H815.549V21.9421H816.634V20.8565H817.72V19.7708H818.806V18.6852H819.891V17.5995H820.977V16.5139H823.148V15.4282H824.234V14.3426H826.405V13.2569H828.577V12.1713H828.848H831.562H831.834V11.0856H832.105H834.819H835.09V10Z" fill="#1E1E1E" stroke="white" stroke-width="20"/>
<path d="M147.877 638.589H148.963V638.86V641.574V641.846H150.048V642.117V645.917V646.188H151.134V646.46V649.174V649.445H152.22V649.717V653.516V653.788H153.305V654.059V656.773V657.045H154.391V657.316V661.116V661.387H155.476V661.659V664.373V664.644H156.562V664.916V667.63V667.901H157.648V670.073H158.733V670.344V673.058V673.33H159.819V673.601V676.315V676.586H160.905V678.758H161.99V679.029V681.743V682.015H163.076V684.186H164.162V686.357H165.247V686.629V689.343V689.614H166.333V691.785H167.419V693.957H168.504V696.128H169.59V698.299H170.676V700.471H171.761V702.642H172.847C172.847 702.913 172.847 703.547 172.847 704.542V704.813H173.932V706.985H175.018V708.07H176.104V710.241H177.189C177.189 710.513 177.189 711.146 177.189 712.141V712.413H178.275V714.584H179.361V715.67H180.446V717.841H181.532V720.012H182.618V721.098H183.703C183.703 721.369 183.703 722.003 183.703 722.998V723.269H184.789V725.44H185.875V726.526H186.96V728.697H188.046V729.783H189.131V731.954H190.217V733.04H191.303V735.211H192.388V736.297H193.474V738.468H194.56V739.554H195.645V740.64H196.731V742.811H197.817V743.896H198.902V746.068H199.988V747.153H201.074V748.239H202.159V750.41H203.245V751.496H204.331V752.582H205.416V754.753H206.502V755.839H207.587V756.924H208.673V758.01H209.759V760.181H210.844V761.267H211.93V762.352H213.016V763.438H214.101V764.524H215.187V766.695H216.273V767.781H217.358V768.866H218.444V769.952H219.53V771.038H220.615V773.209H221.701V774.295H222.787V775.38H223.872V776.466H224.958V777.551H226.043V778.637H227.129V779.723H228.215V780.808H229.3V781.894H230.386V784.065H231.472V785.151H232.557V786.237H233.643V787.322H234.729V788.408H235.814V789.494H236.9V790.579H237.986V791.665H239.071V792.751H240.157V793.836H241.242V794.922H242.328V796.007H243.414V797.093H244.499V798.179H245.585V799.264H246.671V800.35H247.756V801.436H248.842V802.521H249.928V803.607H251.013V804.693H252.099V805.778H253.185V806.864H254.27V807.95H255.356V809.035H256.442V810.121H257.527V811.206H258.613V812.292H260.784V813.378H261.87V814.463H262.955V815.549H264.041V816.635H265.127V817.72H266.212V818.806H267.298V819.892H268.384V820.977H269.469V822.063H271.641V823.149H272.726V824.234H273.812V825.32H274.897V826.406H275.983V827.491H277.069V828.577H278.154V829.662H279.24V830.748H281.411V831.834H282.497V832.919H283.583V834.005H284.668V835.091H285.754V836.176H287.925V837.262H289.011V838.348H290.097V839.433H291.182V840.519H292.268V841.605H294.439V842.69H295.525V843.776H296.61V844.861H297.696V845.947H299.867V847.033H300.953V848.118H302.039V849.204H303.124V850.29H305.296V851.375H306.381V853.547H305.296V854.632H303.124V855.718H300.953V856.804H298.782V857.889H297.696V858.975H295.525V860.061H293.353V861.146H291.182V862.232H289.011V863.317H286.84V864.403H284.668V865.489H282.497V866.574H280.326V867.66H278.154V868.746H275.983V869.831H273.812V870.917H271.641V872.003H269.469V873.088H267.298V874.174H267.027H264.312H264.041V875.26H261.87V876.345H259.698V877.431H257.527V878.516H255.356V879.602H253.185V880.688H252.913H250.199H249.928V881.773H247.756V882.859H247.485H244.771H244.499V883.945H242.328V885.03H240.157V886.116H239.885H237.171H236.9V887.202H236.628H233.914H233.643V888.287H231.472V889.373H231.2H228.486H228.215V890.459H227.943H225.229H224.958V891.544H224.686H221.972H221.701V892.63H219.53V893.716H219.258H216.544H216.273V894.801H216.001H213.287H213.016V895.887H212.744H210.03H209.759V896.972H209.487H206.773H206.502V898.058H206.23H203.516H203.245V899.144H202.973H199.174H198.902V900.229H198.631H195.917H195.645V901.315H195.374H192.66H192.388V902.401H192.117H188.317H188.046V903.486H187.774H183.975H183.703V904.572H183.432H179.632H179.361V905.658H179.089H174.204H173.932V906.743H173.661H169.861H169.59V907.829H169.318H163.347H163.076V908.915H162.805H157.919H157.648V910H157.376H151.405H151.134V911.086H150.862H142.72H142.449V912.171H142.177H131.864H131.592V913.257H131.321H100.38H100.109V912.171H99.8372H91.6948H91.4234V911.086H91.152H86.2666H85.9952V910H85.7238H81.924H81.6526V908.915H81.3812H77.5814H77.31V907.829H77.0386H74.3245H74.0531V906.743H71.8818V905.658H71.6104H68.8963H68.6249V904.572H66.4536V903.486H64.2823V902.401H62.111V901.315H59.9397V900.229H57.7684V899.144C57.497 899.144 56.8637 899.144 55.8685 899.144H55.5971V898.058H53.4258V896.972H52.3402V895.887H50.1689V894.801H49.0832V893.716H47.9976V892.63H45.8263V891.544H44.7407V890.459H43.655V889.373H42.5694V888.287H40.3981V887.202H39.3124V886.116H38.2268V885.03H37.1411V883.945H36.0555V882.859H34.9698V881.773H33.8842V880.688H32.7986V879.602H31.7129V878.516H30.6273V877.431H29.5416V875.26H28.456V874.174H27.3703V873.088H26.2847V870.917H25.199V869.831H24.1134V868.746H23.0277C23.0277 868.474 23.0277 867.841 23.0277 866.846V866.574H21.9421V864.403H20.8565V863.317H19.7708V861.146H18.6852V858.975H17.5995V856.804H16.5139V856.532V853.818V853.547H15.4282V851.375H14.3426V851.104V848.39V848.118H13.2569V847.847V845.133V844.861H12.1713V844.59V839.705V839.433H11.0856V839.162V833.191V832.919H10V832.648V811.478V811.206H11.0856V810.935V803.878V803.607H12.1713V803.336V799.536V799.264H13.2569V798.993V795.193V794.922H14.3426V794.65V790.851V790.579H15.4282V790.308V787.594V787.322H16.5139V787.051V784.337V784.065H17.5995V783.794V781.08V780.808H18.6852V778.637H19.7708V776.466H20.8565V776.194V773.48V773.209H21.9421V771.038H23.0277V768.866H24.1134V766.695H25.199V764.524H26.2847C26.2847 764.252 26.2847 763.619 26.2847 762.624V762.352H27.3703V760.181H28.456V759.095H29.5416C29.5416 758.824 29.5416 758.191 29.5416 757.196V756.924H30.6273V754.753H31.7129V753.667H32.7986C32.7986 753.396 32.7986 752.763 32.7986 751.767V751.496H33.8842V749.325H34.9698V748.239H36.0555V746.068H37.1411V744.982H38.2268V742.811H39.3124V741.725H40.3981V739.554H41.4837V738.468H42.5694V737.383H43.655V735.211H44.7407V734.126H45.8263V731.954H46.9119V730.869H47.9976V729.783H49.0832V728.697H50.1689V726.526H51.2545V725.44H52.3402V724.355H53.4258V722.184H54.5115V721.098H55.5971V720.012H56.6828V718.927H57.7684V717.841H58.854V716.755H59.9397V714.584H61.0253V713.498H62.111V712.413H63.1966V711.327H64.2823V710.241H65.3679V709.156H66.4536V708.07H67.5392V706.985H68.6249V705.899H69.7105V703.728H70.7961V702.642H71.8818V701.556H72.9674V700.471H74.0531V699.385H75.1387V698.299H76.2244V697.214H77.31V696.128H78.3957V695.042H79.4813V693.957H80.567V692.871H81.6526V691.785H83.8239V690.7H84.9095V689.614H85.9952V688.529H87.0808V687.443H88.1665V686.357H89.2521V685.272H90.3378V684.186H91.4234V683.1H92.5091V682.015H93.5947V680.929H94.6803V679.843H95.766V678.758H97.9373V677.672H99.0229V676.586H100.109V675.501H101.194V674.415H102.28V673.33H103.366V672.244H104.451V671.158H106.622V670.073H107.708V668.987H108.794V667.901H109.879V666.816H112.051V665.73H113.136V664.644H114.222V663.559H115.308V662.473H117.479V661.387H118.565V660.302H119.65V659.216H120.736V658.13H122.907V657.045H123.993V655.959H125.078V654.874H126.164V653.788H128.335V652.702H129.421V651.617H130.507V650.531H132.678V649.445H133.764V648.36H134.849V647.274H137.021V646.188H138.106V645.103H140.277V644.017H141.363V642.931H142.449V641.846H144.62V640.76H145.706V639.675H147.877V638.589Z" fill="#1E1E1E" stroke="white" stroke-width="20"/>
</g>
<defs>
<filter id="filter0_d_32_2" x="0" y="0" width="940" height="943.257" filterUnits="userSpaceOnUse" color-interpolation-filters="sRGB">
<feFlood flood-opacity="0" result="BackgroundImageFix"/>
<feColorMatrix in="SourceAlpha" type="matrix" values="0 0 0 0 0 0 0 0 0 0 0 0 0 0 0 0 0 0 127 0" result="hardAlpha"/>
<feOffset dx="20" dy="20"/>
<feComposite in2="hardAlpha" operator="out"/>
<feColorMatrix type="matrix" values="0 0 0 0 0.980392 0 0 0 0 0.980392 0 0 0 0 0.980392 0 0 0 1 0"/>
<feBlend mode="normal" in2="BackgroundImageFix" result="effect1_dropShadow_32_2"/>
<feBlend mode="normal" in="SourceGraphic" in2="effect1_dropShadow_32_2" result="shape"/>
</filter>
</defs>
</svg>
