<svg width="1355" height="1355" viewBox="0 0 1355 1355" fill="none" xmlns="http://www.w3.org/2000/svg">
<g filter="url(#filter0_d_25_48)">
<rect width="1314" height="1314" fill="#5F4FE6"/>
<rect x="25" y="25" width="1264" height="1264" stroke="black" stroke-width="50"/>
</g>
<g filter="url(#filter1_d_25_48)">
<path d="M1032.09 205H1032.36H1044.85H1045.12V206.086H1045.39H1049.19H1049.46V207.171H1049.73H1052.45H1052.72V208.257H1054.89V209.343H1055.97V210.428H1058.15V211.514H1059.23V212.6H1060.32V213.685H1061.4V214.771H1062.49V215.856H1063.57V216.942H1064.66V218.028H1065.75V219.113H1066.83V221.285H1067.92V223.456H1069V225.627H1070.09V225.899V228.613V228.884H1071.17V229.156V234.041V234.312H1072.26V234.584V240.555V240.826H1073.34V241.098V247.069V247.34H1074.43V247.612V253.583V253.854H1075.52V254.125V260.097V260.368H1076.6V260.639V266.61V266.882H1077.69V267.153V273.124V273.396H1078.77V273.667V280.724V280.995H1079.86V281.267V288.323V288.595H1080.94V288.866V294.837V295.109H1082.03V295.38V302.437V302.708H1083.12V302.98V310.036V310.308H1084.2V310.579V317.636V317.907H1085.29V318.179V325.235V325.507H1086.37V325.778V333.92V334.192H1087.46V334.463V342.606V342.877H1088.54V343.148V351.291V351.562H1089.63V351.834V359.976V360.247H1090.72V360.519V368.661V368.932H1091.8V369.204V378.432V378.703H1092.89V378.975V388.203V388.474H1093.97V388.745V399.059V399.331H1095.06V399.602V409.916V410.187H1096.14V410.458V420.772V421.043H1097.23V421.315V432.714V432.986H1098.31V433.257V445.742V446.013H1099.4V446.285V459.855V460.127H1100.49V460.398V473.969V474.24H1101.57V474.511V489.168V489.439H1102.66V489.711V505.452V505.724H1103.74V505.995V526.08V526.351H1104.83V526.622V548.878V549.15H1105.91V549.421V581.448V581.719H1107V581.99V721.496V721.767H1105.91V722.039V755.151V755.422H1104.83V755.694V779.035V779.306H1103.74V779.578V800.748V801.019H1102.66V801.291V819.204V819.475H1101.57V819.747V835.489V835.76H1100.49V836.031V849.602V849.873H1099.4V850.145V863.715V863.987H1098.31V864.258V875.657V875.929H1097.23V876.2V887.6V887.871H1096.14V888.142V899.542V899.813H1095.06V900.084V911.484V911.755H1093.97V912.027V922.34V922.612H1092.89V922.883V932.111V932.382H1091.8V932.654V941.882V942.153H1090.72V942.425V951.653V951.924H1089.63V952.195V961.423V961.695H1088.54V961.966V971.194V971.466H1087.46V971.737V979.879V980.151H1086.37V980.422V988.565V988.836H1085.29V989.107V997.25V997.521H1084.2V997.793V1005.93V1006.21H1083.12V1006.48V1014.62V1014.89H1082.03V1015.16V1022.22V1022.49H1080.94V1022.76V1029.82V1030.09H1079.86V1030.36V1038.5V1038.78H1078.77V1039.05V1046.1V1046.38H1077.69V1046.65V1053.7V1053.97H1076.6V1054.25V1061.3V1061.57H1075.52V1061.85V1067.82V1068.09H1074.43V1068.36V1075.42V1075.69H1073.34V1075.96V1081.93V1082.2H1072.26V1082.47V1086.27V1086.54H1071.17V1088.72H1070.09C1070.09 1088.99 1070.09 1089.62 1070.09 1090.62V1090.89H1069V1093.06H1067.92V1094.14H1066.83V1096.31H1065.75V1097.4H1064.66V1098.49H1063.57V1099.57H1062.49V1100.66H1061.4V1101.74H1059.23V1102.83H1058.15V1103.91H1055.97V1105H1053.8V1106.09H1053.53H1050.82H1050.55V1107.17H1050.27H1046.48H1046.2V1108.26H1045.93H1033.45H1033.18V1107.17H1032.9H1030.19H1029.92V1106.09H1029.65H1026.93H1026.66V1105H1024.49V1103.91C1024.22 1103.91 1023.59 1103.91 1022.59 1103.91H1022.32V1102.83H1020.15V1101.74H1019.06V1100.66H1017.98V1099.57H1015.81V1098.49H1014.72V1096.31H1013.63V1095.23H1012.55V1094.14H1011.46V1091.97H1010.38V1089.8H1009.29V1087.63H1008.21V1085.46H1007.12V1085.19V1081.39V1081.12H1006.03V1080.84V1067.27V1067H1007.12V1066.73V1060.76V1060.49H1008.21V1060.22V1053.16V1052.89H1009.29V1052.62V1045.56V1045.29H1010.38V1045.02V1037.96V1037.69H1011.46V1037.42V1030.36V1030.09H1012.55V1029.82V1022.76V1022.49H1013.63V1022.22V1015.16V1014.89H1014.72V1014.62V1006.48V1006.21H1015.81V1005.93V998.878V998.607H1016.89V998.335V990.193V989.922H1017.98V989.65V981.508V981.236H1019.06V980.965V972.823V972.551H1020.15V972.28V964.138V963.866H1021.23V963.595V954.367V954.095H1022.32V953.824V944.596V944.325H1023.41V944.053V934.825V934.554H1024.49V934.282V923.969V923.697H1025.58V923.426V913.112V912.841H1026.66V912.569V903.341V903.07H1027.75V902.799V891.399V891.128H1028.83V890.857V880.543V880.271H1029.92V880V867.515V867.244H1031V866.972V854.487V854.216H1032.09V853.945V840.374V840.103H1033.18V839.831V825.175V824.904H1034.26V824.632V807.805V807.533H1035.35V807.262V790.434V790.163H1036.43V789.891V768.721V768.45H1037.52V768.179V742.666V742.394H1038.6V742.123V713.353V713.082H1039.69V712.811V585.247V584.976H1037.52V586.062H1036.43V587.147H1035.35V588.233H1034.26V589.318H1033.18V590.404H1031V591.49H1029.92V592.575H1028.83V593.661H1027.75V594.747H1025.58V595.832H1024.49V596.918H1023.41V598.004H1021.23V599.089H1020.15V600.175H1017.98V601.261H1016.89V602.346C1016.62 602.346 1015.99 602.346 1014.99 602.346H1014.72V603.432H1012.55V604.518H1011.46V605.603H1009.29V606.689C1009.02 606.689 1008.39 606.689 1007.39 606.689H1007.12V607.774H1004.95V608.86H1003.86V609.946H1001.69V611.031H999.521V612.117H997.35V613.203H997.078H994.364H994.093V614.288H991.921V615.374H989.75V616.46H987.579V617.545H987.307H984.593H984.322V618.631H982.151V619.717H981.879H979.165H978.894V620.802H976.722V621.888H976.451H973.737H973.465V622.973H971.294V624.059H971.023H968.309H968.037V625.145H967.766H965.052H964.78V626.23H964.509H961.795H961.523V627.316H961.252H958.538H958.266V628.402H957.995H955.281H955.01V629.487H954.738H952.024H951.753V630.573H951.481H947.681H947.41V631.659H947.139H944.424H944.153V632.744H943.882H940.082H939.81V633.83H939.539H936.825H936.554V634.916H936.282H932.482H932.211V636.001H931.94H928.14H927.868V637.087H927.597H923.797H923.526V638.173H923.254H919.455H919.183V639.258H918.912H915.112H914.841V640.344H914.569H910.769H910.498V641.429H910.227H906.427H906.155V642.515H905.884H900.999H900.727V643.601H900.456H896.656H896.385V644.686H896.113H891.228H890.956V645.772H890.685H885.8H885.528V646.858H885.257H879.286H879.014V647.943H878.743H873.858H873.586V649.029H873.315H868.429H868.158V650.115H867.886H861.915H861.644V651.2H861.373H855.402H855.13V652.286H854.859H848.888H848.616V653.372H848.345H841.288H841.017V654.457H840.745H833.689H833.417V655.543H833.146H826.089H825.818V656.629H825.546H818.49H818.218V657.714H817.133V657.986V660.7V660.971H816.047V661.242V663.957V664.228H814.961V666.399H813.876V666.671V669.385V669.656H812.79V671.828H811.704V672.099V674.813V675.084H810.619V677.256H809.533V679.427H808.447V679.698V682.413V682.684H807.362V684.855H806.276V687.027H805.19V689.198H804.105V691.369H803.019V691.641V694.355V694.626H801.934C801.934 694.898 801.934 695.531 801.934 696.526V696.797H800.848V698.969H799.762V700.054H798.677V702.226H797.591V704.397H796.505V706.568H795.42V708.739H794.334C794.334 709.011 794.334 709.644 794.334 710.639V710.911H793.248V713.082H792.163V714.168H791.077V716.339H789.991C789.991 716.61 789.991 717.244 789.991 718.239V718.51H788.906V720.682H787.82V721.767H786.734V723.939H785.649V726.11H784.563V727.195H783.478C783.478 727.467 783.478 728.1 783.478 729.095V729.367H782.392V731.538H781.306V732.624H780.221V734.795H779.135V735.881H778.049V738.052H776.964V739.138H775.878V741.309H774.792V742.394H773.707V744.566H772.621V745.651H771.535V747.823H770.45V748.908H769.364V751.08H768.279V752.165H767.193V754.337H766.107V755.422H765.022V756.508H763.936V758.679H762.85V759.765H761.765V760.85H760.679V763.022H759.593V764.107H758.508V765.193H757.422V767.364H756.336V768.45H755.251V769.536H754.165V771.707H753.079V772.793H751.994V773.878H750.908V774.964H749.823V777.135H748.737V778.221H747.651V779.306H746.566V780.392H745.48V782.563H744.394V783.649H743.309V784.735H742.223V785.82H741.137V786.906H740.052V787.992H738.966V790.163H737.88V791.249H738.966V792.334H741.137V793.42H742.223V794.505H743.309V795.591H745.48V796.677H746.566V797.762H748.737V798.848H749.823V799.934H751.994V801.019H753.079V802.105H755.251V803.191H756.336V804.276H758.508V805.362H759.593V806.448H761.765V807.533H762.85V808.619H763.936V809.705H766.107V810.79H767.193V811.876H768.279V812.961H770.45V814.047H771.535V815.133H773.707V816.218H774.792V817.304H775.878V818.39H778.049V819.475H779.135V820.561H780.221V821.647H782.392V822.732H783.478V823.818H784.563V824.904H786.734V825.989H787.82V827.075H788.906V828.16H791.077V829.246H792.163V830.332H794.334V831.417H795.42V832.503H796.505V833.589H797.591V834.674H799.762V835.76H800.848V836.846H801.934V837.931H804.105V839.017H805.19V840.103H806.276V841.188H808.447V842.274H809.533V843.36H810.619V844.445H811.704V845.531H813.876V846.616H814.961V847.702H816.047V848.788H817.133V849.873H819.304V850.959H820.39V852.045H821.475V853.13H822.561V854.216H823.646V855.302H825.818V856.387H826.903V857.473H827.989V858.559H829.075V859.644H831.246V860.73H832.332V861.815H833.417V862.901H834.503V863.987H835.589V865.072H836.674V866.158H837.76V867.244H838.845V868.329H841.017V869.415H842.102V870.501H843.188V871.586H844.274V872.672H845.359V873.758H846.445V874.843H847.531V875.929H848.616V877.015H849.702V878.1H851.873V879.186H852.959V880.271H854.045V881.357H855.13V882.443H856.216V883.528H857.301V884.614H858.387V885.7H859.473V886.785H860.558V887.871H861.644V888.957H862.73V890.042H863.815V891.128H864.901V892.214H865.987V893.299H867.072V894.385H868.158V895.47H869.244V896.556H870.329V897.642H871.415V898.727H872.5V899.813H873.586V900.899H874.672V901.984H875.757V903.07H876.843V904.156H877.929V906.327H879.014V907.413H880.1V908.498H881.186V909.584H882.271V910.67H883.357V911.755H884.443V912.841H885.528V913.926H886.614V916.098H887.7V917.183H888.785V918.269H889.871V919.355H890.956V920.44H892.042V922.612H893.128V923.697H894.213V924.783H895.299V925.869H896.385V926.954H897.47V929.126H898.556V930.211H899.642V931.297H900.727V933.468H901.813V934.554H902.899V936.725H903.984V937.811H905.07V938.896H906.155V941.068H907.241V942.153H908.327V944.325H909.412V945.41H910.498C910.498 945.682 910.498 946.315 910.498 947.31V947.581H911.584V949.753H912.669V950.838H913.755C913.755 951.11 913.755 951.743 913.755 952.738V953.01H914.841V955.181H915.926V956.267H917.012V958.438H918.098V960.609H919.183V962.781H920.269V964.952H921.355V967.123H922.44V969.294H923.526V969.566V972.28V972.551H924.611V974.723H925.697V974.994V977.708V977.98H926.783V980.151H927.868V980.422V983.136V983.408H928.954V983.679V986.393V986.665H930.04V986.936V990.736V991.007H931.125V991.279V995.078V995.35H932.211V995.621V1000.51V1000.78H933.297V1001.05V1011.36V1011.63H934.382V1011.91V1021.13V1021.41H933.297V1021.68V1031.99V1032.26H932.211V1032.53V1037.42V1037.69H931.125V1037.96V1041.76V1042.03H930.04V1042.3V1045.02V1045.29H928.954V1045.56V1048.28V1048.55H927.868V1050.72H926.783V1050.99V1053.7V1053.97H925.697V1056.15H924.611C924.611 1056.42 924.611 1057.05 924.611 1058.05V1058.32H923.526V1060.49H922.44V1061.57H921.355C921.355 1061.85 921.355 1062.48 921.355 1063.47V1063.75H920.269V1065.92H919.183V1067H918.098V1068.09H917.012V1070.26H915.926V1071.35H914.841V1072.43H913.755V1073.52H912.669V1075.69H911.584V1076.77H910.498V1077.86H909.412V1078.94H908.327V1080.03H907.241V1081.12H906.155V1082.2H905.07V1083.29H903.984V1084.37H901.813V1085.46H900.727V1086.54H899.642V1087.63H898.556V1088.72H896.385V1089.8H895.299V1090.89H893.128V1091.97H892.042V1093.06C891.771 1093.06 891.137 1093.06 890.142 1093.06H889.871V1094.14H887.7V1095.23H886.614V1096.31H884.443V1097.4H884.171H881.457H881.186V1098.49H879.014V1099.57H876.843V1100.66H876.572H873.858H873.586V1101.74H873.315H870.601H870.329V1102.83H870.058H867.344H867.072V1103.91H866.801H863.001H862.73V1105H862.458H858.659H858.387V1106.09H858.116H852.145H851.873V1107.17H851.602H843.459H843.188V1108.26H842.917H813.061H812.79V1107.17H812.519H802.205H801.934V1106.09H801.662H794.605H794.334V1105H794.063H788.092H787.82V1103.91H787.549H781.578H781.306V1102.83H781.035H776.149H775.878V1101.74H775.607H771.807H771.535V1100.66H771.264H767.464H767.193V1099.57H766.921H763.122H762.85V1098.49H762.579H758.779H758.508V1097.4H758.236H754.437H754.165V1096.31H753.894H751.18H750.908V1095.23H750.637H746.837H746.566V1094.14H746.294H743.58H743.309V1093.06H743.037H740.323H740.052V1091.97H739.78H737.066H736.795V1090.89H736.523H733.809H733.538V1089.8H733.266H730.552H730.281V1088.72H730.01H727.295H727.024V1087.63H724.853V1086.54H724.581H721.867H721.596V1085.46H721.324H718.61H718.339V1084.37H718.067H715.353H715.082V1083.29H712.911V1082.2H712.639H709.925H709.654V1081.12H707.482V1080.03H707.211H704.497H704.225V1078.94H702.054V1077.86H701.783H699.069H698.797V1076.77H696.626V1075.69H694.455V1074.6H694.183H691.469H691.198V1073.52H689.026V1072.43H686.855V1071.35H684.684V1070.26H684.412H681.698H681.427V1069.17H679.256V1068.09H677.084V1067H674.913V1065.92H672.742V1064.83H672.47H669.756H669.485V1063.75H667.314V1062.66H665.142V1061.57H662.971V1060.49H660.8V1059.4C660.528 1059.4 659.895 1059.4 658.9 1059.4H658.628V1058.32H656.457V1057.23H655.371V1056.15H653.2V1055.06H651.029V1053.97H648.858V1052.89H646.686V1051.8H644.515V1050.72H642.344V1049.63H640.172V1048.55H638.001V1047.46H635.83V1046.38C635.558 1046.38 634.925 1046.38 633.93 1046.38H633.659V1045.29H631.487V1044.2H630.402V1043.12H628.23V1042.03C627.959 1042.03 627.326 1042.03 626.33 1042.03H626.059V1040.95H623.888V1039.86H622.802V1038.78H620.631V1037.69C620.359 1037.69 619.726 1037.69 618.731 1037.69H618.459V1036.6H616.288V1035.52H615.203V1034.43C614.931 1034.43 614.298 1034.43 613.303 1034.43H613.031V1033.35H610.86V1032.26H609.774V1031.18H607.603V1030.09H605.432V1029H604.346V1027.92C604.075 1027.92 603.441 1027.92 602.446 1027.92H602.175V1026.83H600.004V1025.75H598.918V1024.66H596.747V1023.58H595.661V1022.49C595.39 1022.49 594.756 1022.49 593.761 1022.49H593.49V1021.41H591.318V1020.32H590.233V1019.23H588.061V1018.15H586.976V1017.06H584.804V1015.98H583.719V1014.89H581.548V1013.81H580.462V1012.72H578.291V1011.63H577.205V1010.55H575.034V1009.46H573.948V1008.38H571.777V1007.29H570.691V1006.21H568.52V1005.12H567.434V1004.04H566.348V1002.95H564.177V1001.86H563.092V1000.78H560.92V999.692H559.835V998.607H558.749V997.521H556.578V996.436H555.492V995.35H554.406V994.264H552.235V993.179H551.149V992.093H550.064V991.007H547.893V989.922H546.807V988.836H545.721V987.75H543.55V986.665H542.464V985.579H541.379V984.493H540.293V983.408H538.122V982.322H537.036V981.236H535.95V980.151H534.865V979.065H532.693V977.98H531.608V976.894H530.522V975.808H529.437V974.723H527.265V973.637H526.18V972.551H525.094V971.466H524.008V970.38H522.923V969.294H521.837V968.209H520.751V967.123H518.58V966.037H517.494V964.952H516.409V963.866H515.323V962.781H514.238V961.695H513.152V960.609H510.981V959.524H509.895V958.438H508.809V957.352H507.724V956.267H506.638V955.181H505.552V954.095H504.467V953.01H503.381V951.924H502.295V950.838H501.21V949.753H500.124V948.667H499.038V947.581H497.953V946.496H496.867V945.41H495.782V944.325H494.696V943.239H493.61V942.153H492.525V941.068H491.439V939.982H490.353V938.896H489.268V937.811H488.182V936.725H487.096V935.639H486.011V934.554H484.925V933.468H483.839V932.382H482.754V931.297H481.668V930.211H480.583V929.126H479.497V928.04H478.411V926.954H477.326V925.869H476.24V924.783H475.154V922.612H474.069V921.526H472.983V920.44H471.897V919.355H470.812V918.269H469.726V917.183H468.64V915.012H467.555V913.926H466.469V912.841H465.383V911.755H464.298V910.67H463.212V908.498H462.127V907.413H461.041V906.327H459.955V905.241H458.87V903.07H457.784V901.984H456.698V900.899H455.613V898.727H454.527V897.642H453.441V895.47H452.356V894.385H451.27V893.299H450.184V891.128H449.099V890.042H448.013V887.871H446.928V886.785H445.842V884.614H444.756V883.528H443.671V881.357H442.585V880.271H441.499C441.499 880 441.499 879.367 441.499 878.372V878.1H440.414V875.929H439.328V874.843H438.242V872.672H437.157V870.501H436.071V868.329H434.985V866.158H433.9V863.987H432.814V861.815H431.728V859.644H430.643V857.473H429.557V855.302H428.472V853.13H427.386V850.959H426.3V850.688V847.974V847.702H425.215V845.531H424.129V845.259V842.545V842.274H423.043V842.002V839.288V839.017H421.958V838.746V836.031V835.76H420.872V835.489V832.774V832.503H419.786V832.232V828.432V828.16H418.701V827.889V824.089V823.818H417.615V823.546V818.661V818.39H416.529V818.118V811.062V810.79H415.444V810.519V795.863V795.591H414.358V795.32V789.349V789.077H415.444V788.806V770.893V770.621H416.529V770.35V762.208V761.936H417.615V761.665V754.608V754.337H418.701V754.065V748.094V747.823H419.786V747.551V741.58V741.309H420.872V741.037V736.152V735.881H421.958V735.609V730.724V730.452H423.043V730.181V726.381V726.11H424.129V725.838V722.039V721.767H425.215V721.496V716.61V716.339H426.3V716.068V713.353V713.082H427.386V712.811V709.011V708.739H428.472V708.468V704.668V704.397H429.557V704.125V700.326V700.054H430.643V699.783V697.069V696.797H431.728V696.526V693.812V693.54H432.814V693.269V689.469V689.198H433.9V688.926V686.212V685.941H434.985V685.67V682.955V682.684H436.071V682.413V679.698V679.427H437.157V679.156V676.442V676.17H438.242V675.899V673.185V672.913H439.328V672.642V669.928V669.656H440.414V667.485H441.499V667.214V664.499V664.228H442.585V663.957V661.242V660.971H443.671V658.8H444.756V658.528V655.814V655.543H445.842V655.271V652.557V652.286H446.928V650.115H448.013V647.943H449.099V647.672V644.958V644.686H450.184V642.515H451.27V642.244V639.53V639.258H452.356V637.087H453.441V634.916H454.527V632.744H455.613V632.473V629.759V629.487H456.698V627.316H457.784V625.145H458.87V622.973H459.955V620.802H461.041V618.631H462.127V616.46H463.212V614.288H464.298V612.117H465.383C465.383 611.846 465.383 611.212 465.383 610.217V609.946H466.469V607.774H467.555V606.689H468.64V604.518H469.726V602.346H470.812V600.175H471.897C471.897 599.904 471.897 599.27 471.897 598.275V598.004H472.983V595.832H474.069V594.747H475.154V592.575H476.24C476.24 592.304 476.24 591.671 476.24 590.676V590.404H477.326V588.233H478.411V587.147H479.497C479.497 586.876 479.497 586.242 479.497 585.247V584.976H480.583V582.805H481.668V581.719H482.754V579.548H483.839V578.462H484.925C484.925 578.191 484.925 577.557 484.925 576.562V576.291H486.011V574.119H487.096V573.034H488.182V570.863H489.268V569.777H490.353V567.606H491.439V566.52H492.525V564.349H493.61V563.263H494.696V561.092H495.782V560.006H496.867V558.92H497.953V556.749H499.038V555.663H500.124V553.492H501.21V552.407H502.295V551.321H503.381V549.15H504.467V548.064H505.552V546.978H506.638V544.807H507.724V543.721H508.809V542.636H509.895V541.55H510.981V539.379H512.066V538.293H513.152V537.208H514.238V536.122H515.323V533.951H516.409V532.865H517.494V531.779H518.58V530.694H519.666V529.608H520.751V527.437H521.837V526.351H522.923V525.265H524.008V524.18H525.094V523.094H526.18V522.008H527.265V520.923H528.351V518.752H529.437V517.666H530.522V516.58H531.608V515.495H532.693V514.409H533.779V513.323H534.865V512.238H535.95V511.152H537.036V510.066H538.122V508.981H539.207V507.895H540.293V506.809H541.379V505.724H542.464V504.638H543.55V503.552H544.636V502.467H545.721V501.381H546.807V500.296H547.893V499.21H548.978V498.124H550.064V497.039H551.149V495.953H552.235V494.867H553.321V493.782H554.406V492.696H555.492V491.61H556.578V490.525H558.749V489.439H559.835V488.353H560.92V487.268H562.006V486.182H563.092V485.097H564.177V484.011H565.263V482.925H567.434V481.84H568.52V480.754H569.605V479.668H570.691V478.583H571.777V477.497H573.948V476.411H575.034V475.326H576.119V474.24H578.291V473.154H579.376V472.069H580.462V470.983H581.548V469.897H583.719V468.812H584.804V467.726H586.976V466.641H588.061V465.555H589.147V464.469H591.318V463.384H592.404V462.298H594.575V461.212H595.661V460.127H597.832V459.041H598.918V457.955H601.089V456.87H602.175V455.784H604.346V454.698H605.432V453.613C605.703 453.613 606.336 453.613 607.332 453.613H607.603V452.527H609.774V451.442H610.86V450.356C611.131 450.356 611.765 450.356 612.76 450.356H613.031V449.27H615.203V448.185H616.288V447.099H618.459V446.013H620.631V444.928H622.802V443.842H624.973V442.756H627.145V441.671H629.316V440.585H631.487V439.499H633.659V438.414H635.83V437.328H638.001V436.242H638.273H640.987H641.258V435.157H643.429V434.071H645.601V432.986H645.872H648.586H648.858V431.9H651.029V430.814H651.3H654.014H654.286V430.543V427.829V427.557H653.2V426.472H652.114V424.3H651.029V423.215H649.943V421.043H648.858V419.958H647.772V417.787H646.686V416.701H645.601C645.601 416.429 645.601 415.796 645.601 414.801V414.53H644.515V412.358H643.429V411.273H642.344V409.101H641.258V406.93H640.172V404.759H639.087V402.587H638.001V400.416H636.915V400.145V397.431V397.159H635.83V394.988H634.744V394.717V392.002V391.731H633.659V391.46V388.745V388.474H632.573V388.203V385.489V385.217H631.487V384.946V382.232V381.96H630.402V381.689V377.889V377.618H629.316V377.346V372.461V372.189H628.23V371.918V367.033V366.761H627.145V366.49V357.262V356.99H626.059V356.719V333.378V333.106H627.145V332.835V324.692V324.421H628.23V324.15V318.179V317.907H629.316V317.636V313.836V313.565H630.402V313.293V309.493V309.222H631.487V308.951V306.236V305.965H632.573V305.694V301.894V301.622H633.659V301.351V298.637V298.366H634.744V296.194H635.83V295.923V293.209V292.937H636.915V290.766H638.001V288.595H639.087V286.423H640.172V286.152V283.438V283.166H641.258V280.995H642.344V279.91H643.429V277.738H644.515C644.515 277.467 644.515 276.834 644.515 275.838V275.567H645.601V273.396H646.686V272.31H647.772V270.139H648.858V269.053H649.943V266.882H651.029V265.796H652.114V263.625H653.2V262.539H654.286V261.454H655.371V260.368H656.457V258.197H657.543V257.111H658.628V256.025H659.714V254.94H660.8V253.854H661.885V252.768H662.971V251.683H664.057V250.597H665.142V249.511H666.228V248.426H667.314V247.34H668.399V246.255H669.485V245.169H670.57V244.083H671.656V242.998H672.742V241.912H673.827V240.826H674.913V239.741H677.084V238.655H678.17V237.569H679.256V236.484H681.427V235.398H682.513V234.312H683.598V233.227H685.769V232.141H686.855V231.055H689.026V229.97H690.112V228.884H692.283V227.799H694.455V226.713C694.726 226.713 695.359 226.713 696.355 226.713H696.626V225.627H698.797V224.542H699.883V223.456H702.054V222.37H704.225V221.285H704.497H707.211H707.482V220.199H709.654V219.113H709.925H712.639H712.911V218.028H715.082V216.942H715.353H718.067H718.339V215.856H718.61H721.324H721.596V214.771H721.867H725.667H725.938V213.685H726.21H730.01H730.281V212.6H730.552H734.352H734.624V211.514H734.895H740.866H741.137V210.428H741.409H749.551H749.823V209.343H750.094H774.521H774.792V210.428H775.064H783.206H783.478V211.514H783.749H789.72H789.991V212.6H790.263H794.063H794.334V213.685H794.605H798.405H798.677V214.771H798.948H801.662H801.934V215.856H802.205H806.005H806.276V216.942H808.447V218.028H808.719H811.433H811.704V219.113H811.976H814.69H814.961V220.199H817.133V221.285H819.304V222.37H821.475V223.456H823.646V224.542H825.818V225.627C826.089 225.627 826.722 225.627 827.718 225.627H827.989V226.713H830.16V227.799H831.246V228.884C831.517 228.884 832.151 228.884 833.146 228.884H833.417V229.97H835.589V231.055H836.674V232.141H838.845V233.227H839.931V234.312H841.017V235.398H843.188V236.484H844.274V237.569H845.359V238.655H847.531V239.741H848.616V240.826H849.702V241.912H850.788V242.998H851.873V244.083H854.045V245.169H855.13V246.255H856.216V247.34H857.301V248.426H858.387V249.511H859.473V250.597H860.558V251.683H861.644V252.768H862.73V253.854H863.815V256.025H864.901V257.111H865.987V258.197H867.072V259.282H868.158V260.368H869.244V262.539H870.329V263.625H871.415V264.71H872.5V266.882H873.586V267.967H874.672V270.139H875.757V271.224H876.843V273.396H877.929V274.481H879.014V276.653H880.1V278.824H881.186V280.995H882.271V283.166H883.357V285.338H884.443V287.509H885.528V289.68H886.614V291.852H887.7V292.123V294.837V295.109H888.785V297.28H889.871V297.551V300.265V300.537H890.956V300.808V303.522V303.794H892.042V304.065V307.865V308.136H893.128V308.408V311.122V311.393H894.213V311.665V316.55V316.821H895.299V317.093V321.978V322.25H896.385V322.521V329.578V329.849H897.47V330.121V359.976V360.247H896.385V360.519V367.575V367.847H895.299V368.118V374.089V374.361H894.213V374.632V378.432V378.703H893.128V378.975V382.774V383.046H892.042V383.317V386.031V386.303H890.956V386.574V389.288V389.56H889.871V389.831V392.545V392.817H888.785V393.088V395.802V396.074H887.7V398.245H886.614V400.416H885.528V400.688V403.402V403.673H884.443V405.844H883.357C883.357 406.116 883.357 406.749 883.357 407.744V408.016H882.271V410.187H881.186V411.273H880.1V413.444H879.014C879.014 413.715 879.014 414.349 879.014 415.344V415.615H877.929V417.787H876.843V418.872H875.757V421.043H874.672V422.129H873.586V424.3H872.5V425.386H871.415V426.472H870.329V428.643H869.244V429.729H868.158V430.814H868.429H871.143H871.415V431.9H871.686H878.743H879.014V432.986H879.286H887.428H887.7V434.071H887.971H895.028H895.299V435.157H895.57H902.627H902.899V436.242H903.17H909.141H909.412V437.328H909.684H915.655H915.926V438.414H916.198H922.169H922.44V439.499H922.712H927.597H927.868V440.585H928.14H934.111H934.382V441.671H934.654H939.539H939.81V442.756H940.082H943.882H944.153V443.842H944.424H948.224H948.496V444.928H948.767H953.652H953.924V446.013H954.195H957.995H958.266V447.099H958.538H962.338H962.609V448.185H962.88H966.68H966.952V449.27H967.223H969.937H970.209V450.356H970.48H974.28H974.551V451.442H974.823H977.537H977.808V452.527H978.079H980.794H981.065V453.613H981.336H984.051H984.322V454.698H984.593H987.307H987.579V455.784H987.85H990.564H990.836V456.87H991.107H993.821H994.093V457.955H994.364H997.078H997.35V459.041H999.521V460.127H999.792H1002.51H1002.78V461.212H1004.95V462.298H1007.12V463.384H1009.29V464.469H1011.46V465.555H1013.63V466.641H1015.81V467.726H1017.98V468.812C1018.25 468.812 1018.88 468.812 1019.88 468.812H1020.15V469.897H1022.32V470.983H1023.41V472.069H1025.58V473.154H1026.66V474.24H1028.83V475.326H1029.92V476.411H1032.09V477.497H1033.18V478.583H1034.26V478.311V473.426V473.154H1033.18V472.883V458.227V457.955H1032.09V457.684V445.199V444.928H1031V444.656V431.086V430.814H1029.92V430.543V419.144V418.872H1028.83V418.601V407.201V406.93H1027.75V406.659V396.345V396.074H1026.66V395.802V386.574V386.303H1025.58V386.031V375.718V375.446H1024.49V375.175V365.947V365.676H1023.41V365.404V356.176V355.905H1022.32V355.633V347.491V347.22H1021.23V346.948V338.806V338.534H1020.15V338.263V331.206V330.935H1019.06V330.663V322.521V322.25H1017.98V321.978V314.922V314.65H1016.89V314.379V307.322V307.051H1015.81V306.779V299.723V299.451H1014.72V299.18V292.123V291.852H1013.63V291.58V285.609V285.338H1012.55V285.066V278.01V277.738H1011.46V277.467V271.496V271.224H1010.38V270.953V264.982V264.71H1009.29V264.439V257.382V257.111H1008.21V256.84V250.869V250.597H1007.12V250.326V245.44V245.169H1006.03V244.897V231.327V231.055H1007.12V230.784V226.984V226.713H1008.21V224.542H1009.29V222.37H1010.38C1010.38 222.099 1010.38 221.466 1010.38 220.47V220.199H1011.46V218.028H1012.55V216.942H1013.63V215.856H1014.72V214.771H1015.81V213.685H1016.89V212.6H1017.98V211.514H1020.15V210.428H1021.23V209.343H1023.41V208.257H1025.58V207.171H1025.85H1028.56H1028.83V206.086H1029.1H1031.82H1032.09V205Z" fill="white" stroke="#1E1E1E" stroke-width="30"/>
<path d="M344.877 833.589H345.963V833.86V836.574V836.846H347.048V837.117V840.917V841.188H348.134V841.46V844.174V844.445H349.22V844.716V848.516V848.788H350.305V849.059V851.773V852.045H351.391V852.316V856.116V856.387H352.476V856.659V859.373V859.644H353.562V859.916V862.63V862.901H354.648V865.072H355.733V865.344V868.058V868.329H356.819V868.601V871.315V871.586H357.905V873.757H358.99V874.029V876.743V877.014H360.076V879.186H361.162V881.357H362.247V881.628V884.343V884.614H363.333V886.785H364.419V888.957H365.504V891.128H366.59V893.299H367.676V895.47H368.761V897.642H369.847C369.847 897.913 369.847 898.546 369.847 899.542V899.813H370.932V901.984H372.018V903.07H373.104V905.241H374.189C374.189 905.513 374.189 906.146 374.189 907.141V907.413H375.275V909.584H376.361V910.669H377.446V912.841H378.532V915.012H379.618V916.098H380.703C380.703 916.369 380.703 917.002 380.703 917.998V918.269H381.789V920.44H382.875V921.526H383.96V923.697H385.046V924.783H386.131V926.954H387.217V928.04H388.303V930.211H389.388V931.297H390.474V933.468H391.56V934.554H392.645V935.639H393.731V937.811H394.817V938.896H395.902V941.068H396.988V942.153H398.074V943.239H399.159V945.41H400.245V946.496H401.331V947.581H402.416V949.753H403.502V950.838H404.587V951.924H405.673V953.01H406.759V955.181H407.844V956.267H408.93V957.352H410.016V958.438H411.101V959.523H412.187V961.695H413.273V962.78H414.358V963.866H415.444V964.952H416.53V966.037H417.615V968.209H418.701V969.294H419.787V970.38H420.872V971.466H421.958V972.551H423.043V973.637H424.129V974.723H425.215V975.808H426.3V976.894H427.386V979.065H428.472V980.151H429.557V981.236H430.643V982.322H431.729V983.408H432.814V984.493H433.9V985.579H434.986V986.665H436.071V987.75H437.157V988.836H438.242V989.922H439.328V991.007H440.414V992.093H441.499V993.178H442.585V994.264H443.671V995.35H444.756V996.435H445.842V997.521H446.928V998.607H448.013V999.692H449.099V1000.78H450.185V1001.86H451.27V1002.95H452.356V1004.03H453.442V1005.12H454.527V1006.21H455.613V1007.29H457.784V1008.38H458.87V1009.46H459.955V1010.55H461.041V1011.63H462.127V1012.72H463.212V1013.81H464.298V1014.89H465.384V1015.98H466.469V1017.06H468.641V1018.15H469.726V1019.23H470.812V1020.32H471.897V1021.41H472.983V1022.49H474.069V1023.58H475.154V1024.66H476.24V1025.75H478.411V1026.83H479.497V1027.92H480.583V1029H481.668V1030.09H482.754V1031.18H484.925V1032.26H486.011V1033.35H487.097V1034.43H488.182V1035.52H489.268V1036.6H491.439V1037.69H492.525V1038.78H493.61V1039.86H494.696V1040.95H496.867V1042.03H497.953V1043.12H499.039V1044.2H500.124V1045.29H502.296V1046.38H503.381V1048.55H502.296V1049.63H500.124V1050.72H497.953V1051.8H495.782V1052.89H494.696V1053.97H492.525V1055.06H490.353V1056.15H488.182V1057.23H486.011V1058.32H483.84V1059.4H481.668V1060.49H479.497V1061.57H477.326V1062.66H475.154V1063.75H472.983V1064.83H470.812V1065.92H468.641V1067H466.469V1068.09H464.298V1069.17H464.027H461.312H461.041V1070.26H458.87V1071.34H456.698V1072.43H454.527V1073.52H452.356V1074.6H450.185V1075.69H449.913H447.199H446.928V1076.77H444.756V1077.86H444.485H441.771H441.499V1078.94H439.328V1080.03H437.157V1081.12H436.885H434.171H433.9V1082.2H433.628H430.914H430.643V1083.29H428.472V1084.37H428.2H425.486H425.215V1085.46H424.943H422.229H421.958V1086.54H421.686H418.972H418.701V1087.63H416.53V1088.72H416.258H413.544H413.273V1089.8H413.001H410.287H410.016V1090.89H409.744H407.03H406.759V1091.97H406.487H403.773H403.502V1093.06H403.23H400.516H400.245V1094.14H399.973H396.174H395.902V1095.23H395.631H392.917H392.645V1096.31H392.374H389.66H389.388V1097.4H389.117H385.317H385.046V1098.49H384.774H380.975H380.703V1099.57H380.432H376.632H376.361V1100.66H376.089H371.204H370.932V1101.74H370.661H366.861H366.59V1102.83H366.318H360.347H360.076V1103.91H359.805H354.919H354.648V1105H354.376H348.405H348.134V1106.09H347.862H339.72H339.449V1107.17H339.177H328.864H328.592V1108.26H328.321H297.38H297.109V1107.17H296.837H288.695H288.423V1106.09H288.152H283.267H282.995V1105H282.724H278.924H278.653V1103.91H278.381H274.581H274.31V1102.83H274.039H271.324H271.053V1101.74H268.882V1100.66H268.61H265.896H265.625V1099.57H263.454V1098.49H261.282V1097.4H259.111V1096.31H256.94V1095.23H254.768V1094.14C254.497 1094.14 253.864 1094.14 252.869 1094.14H252.597V1093.06H250.426V1091.97H249.34V1090.89H247.169V1089.8H246.083V1088.72H244.998V1087.63H242.826V1086.54H241.741V1085.46H240.655V1084.37H239.569V1083.29H237.398V1082.2H236.312V1081.12H235.227V1080.03H234.141V1078.94H233.055V1077.86H231.97V1076.77H230.884V1075.69H229.799V1074.6H228.713V1073.52H227.627V1072.43H226.542V1070.26H225.456V1069.17H224.37V1068.09H223.285V1065.92H222.199V1064.83H221.113V1063.75H220.028C220.028 1063.47 220.028 1062.84 220.028 1061.85V1061.57H218.942V1059.4H217.856V1058.32H216.771V1056.15H215.685V1053.97H214.6V1051.8H213.514V1051.53V1048.82V1048.55H212.428V1046.38H211.343V1046.1V1043.39V1043.12H210.257V1042.85V1040.13V1039.86H209.171V1039.59V1034.7V1034.43H208.086V1034.16V1028.19V1027.92H207V1027.65V1006.48V1006.21H208.086V1005.93V998.878V998.607H209.171V998.335V994.536V994.264H210.257V993.993V990.193V989.922H211.343V989.65V985.85V985.579H212.428V985.308V982.593V982.322H213.514V982.051V979.337V979.065H214.6V978.794V976.08V975.808H215.685V973.637H216.771V971.466H217.856V971.194V968.48V968.209H218.942V966.037H220.028V963.866H221.113V961.695H222.199V959.523H223.285C223.285 959.252 223.285 958.619 223.285 957.624V957.352H224.37V955.181H225.456V954.095H226.542C226.542 953.824 226.542 953.191 226.542 952.195V951.924H227.627V949.753H228.713V948.667H229.799C229.799 948.396 229.799 947.762 229.799 946.767V946.496H230.884V944.324H231.97V943.239H233.055V941.068H234.141V939.982H235.227V937.811H236.312V936.725H237.398V934.554H238.484V933.468H239.569V932.382H240.655V930.211H241.741V929.125H242.826V926.954H243.912V925.868H244.998V924.783H246.083V923.697H247.169V921.526H248.255V920.44H249.34V919.355H250.426V917.183H251.511V916.098H252.597V915.012H253.683V913.926H254.768V912.841H255.854V911.755H256.94V909.584H258.025V908.498H259.111V907.413H260.197V906.327H261.282V905.241H262.368V904.156H263.454V903.07H264.539V901.984H265.625V900.899H266.71V898.727H267.796V897.642H268.882V896.556H269.967V895.47H271.053V894.385H272.139V893.299H273.224V892.213H274.31V891.128H275.396V890.042H276.481V888.957H277.567V887.871H278.653V886.785H280.824V885.7H281.91V884.614H282.995V883.528H284.081V882.443H285.166V881.357H286.252V880.271H287.338V879.186H288.423V878.1H289.509V877.014H290.595V875.929H291.68V874.843H292.766V873.757H294.937V872.672H296.023V871.586H297.109V870.501H298.194V869.415H299.28V868.329H300.366V867.244H301.451V866.158H303.622V865.072H304.708V863.987H305.794V862.901H306.879V861.815H309.051V860.73H310.136V859.644H311.222V858.558H312.308V857.473H314.479V856.387H315.565V855.302H316.65V854.216H317.736V853.13H319.907V852.045H320.993V850.959H322.078V849.873H323.164V848.788H325.335V847.702H326.421V846.616H327.507V845.531H329.678V844.445H330.764V843.359H331.849V842.274H334.021V841.188H335.106V840.102H337.277V839.017H338.363V837.931H339.449V836.846H341.62V835.76H342.706V834.674H344.877V833.589Z" fill="white" stroke="#1E1E1E" stroke-width="30"/>
</g>
<defs>
<filter id="filter0_d_25_48" x="0" y="0" width="1355" height="1355" filterUnits="userSpaceOnUse" color-interpolation-filters="sRGB">
<feFlood flood-opacity="0" result="BackgroundImageFix"/>
<feColorMatrix in="SourceAlpha" type="matrix" values="0 0 0 0 0 0 0 0 0 0 0 0 0 0 0 0 0 0 127 0" result="hardAlpha"/>
<feMorphology radius="1" operator="dilate" in="SourceAlpha" result="effect1_dropShadow_25_48"/>
<feOffset dx="40" dy="40"/>
<feComposite in2="hardAlpha" operator="out"/>
<feColorMatrix type="matrix" values="0 0 0 0 0.227451 0 0 0 0 0.227451 0 0 0 0 0.227451 0 0 0 1 0"/>
<feBlend mode="normal" in2="BackgroundImageFix" result="effect1_dropShadow_25_48"/>
<feBlend mode="normal" in="SourceGraphic" in2="effect1_dropShadow_25_48" result="shape"/>
</filter>
<filter id="filter1_d_25_48" x="192" y="190" width="950" height="953.257" filterUnits="userSpaceOnUse" color-interpolation-filters="sRGB">
<feFlood flood-opacity="0" result="BackgroundImageFix"/>
<feColorMatrix in="SourceAlpha" type="matrix" values="0 0 0 0 0 0 0 0 0 0 0 0 0 0 0 0 0 0 127 0" result="hardAlpha"/>
<feOffset dx="20" dy="20"/>
<feComposite in2="hardAlpha" operator="out"/>
<feColorMatrix type="matrix" values="0 0 0 0 0.227451 0 0 0 0 0.227451 0 0 0 0 0.227451 0 0 0 1 0"/>
<feBlend mode="normal" in2="BackgroundImageFix" result="effect1_dropShadow_25_48"/>
<feBlend mode="normal" in="SourceGraphic" in2="effect1_dropShadow_25_48" result="shape"/>
</filter>
</defs>
</svg>
